<svg width="78" height="79" viewBox="0 0 78 79" fill="none" xmlns="http://www.w3.org/2000/svg">
<path d="M35.44 62.7533H4.49594C4.15398 62.7533 3.82604 62.6175 3.58424 62.3757C3.34244 62.1339 3.2066 61.806 3.2066 61.464V21.4946H23.836V26.6519C23.836 27.3359 24.1077 27.9917 24.5912 28.4753C25.0748 28.9589 25.7307 29.2306 26.4146 29.2306H39.308C39.9919 29.2306 40.6478 28.9589 41.1314 28.4753C41.615 27.9917 41.8867 27.3359 41.8867 26.6519V21.4946H62.516V24.0733H65.0947V4.73324C65.0947 3.70738 64.6872 2.72354 63.9618 1.99815C63.2364 1.27276 62.2526 0.865234 61.2267 0.865234H4.49594C3.47008 0.865234 2.48623 1.27276 1.76084 1.99815C1.03545 2.72354 0.62793 3.70738 0.62793 4.73324V61.464C0.62793 62.4899 1.03545 63.4737 1.76084 64.1991C2.48623 64.9245 3.47008 65.332 4.49594 65.332H35.44V62.7533ZM3.2066 18.9159V13.7586H23.836V18.9159H3.2066ZM41.8867 18.9159V13.7586H62.516V18.9159H41.8867ZM62.516 4.73324V11.1799H41.8867V3.44391H61.2267C61.5687 3.44391 61.8966 3.57975 62.1384 3.82154C62.3802 4.06334 62.516 4.39129 62.516 4.73324ZM39.308 3.44391V26.6519H26.4146V3.44391H39.308ZM4.49594 3.44391H23.836V11.1799H3.2066V4.73324C3.2066 4.39129 3.34244 4.06334 3.58424 3.82154C3.82604 3.57975 4.15398 3.44391 4.49594 3.44391Z" fill="white"/>
<path d="M62.5163 60.2237V57.4671C63.9714 57.1678 65.2789 56.3761 66.2183 55.2252C67.1578 54.0744 67.6717 52.6349 67.6736 51.1493V48.5707C68.5579 48.5674 69.4143 48.2612 70.1003 47.7032C70.7862 47.1452 71.2603 46.369 71.4434 45.5039C71.6266 44.6389 71.5079 43.7371 71.107 42.949C70.706 42.1608 70.0472 41.5338 69.2402 41.1724L69.8526 38.7227C69.9779 38.2471 69.9603 37.7451 69.8021 37.2794C69.6439 36.8137 69.352 36.4049 68.9629 36.1041V30.2621C68.9643 29.6925 68.7756 29.1387 68.4267 28.6884C68.0777 28.2381 67.5886 27.9171 67.0367 27.7762C66.2102 27.53 58.8842 25.3626 56.0696 25.3626C53.255 25.3626 45.929 27.53 45.1928 27.753C44.6227 27.882 44.113 28.2003 43.7469 28.6559C43.3807 29.1114 43.1796 29.6776 43.1762 30.2621V36.1041C42.7866 36.4051 42.4945 36.8143 42.3365 37.2806C42.1785 37.7469 42.1616 38.2494 42.2879 38.7253L42.899 41.175C42.0935 41.5373 41.4362 42.1643 41.0364 42.9519C40.6367 43.7395 40.5185 44.6402 40.7015 45.5042C40.8845 46.3683 41.3577 47.1437 42.0425 47.7016C42.7273 48.2594 43.5823 48.5661 44.4656 48.5707V51.1493C44.4674 52.6349 44.9814 54.0744 45.9209 55.2252C46.8603 56.3761 48.1678 57.1678 49.6229 57.4671V60.225C45.4153 60.555 41.4865 62.4581 38.6191 65.555C35.7518 68.652 34.1564 72.7155 34.1509 76.936C34.1509 77.278 34.2867 77.6059 34.5285 77.8477C34.7703 78.0895 35.0983 78.2254 35.4402 78.2254H76.699C77.0409 78.2254 77.3689 78.0895 77.6107 77.8477C77.8525 77.6059 77.9883 77.278 77.9883 76.936C77.9831 72.7153 76.3878 68.6515 73.5205 65.5542C70.6531 62.457 66.7241 60.5537 62.5163 60.2237ZM52.2016 57.596H59.9376V60.9302L56.0696 64.7982L52.2016 60.9302V57.596ZM45.4107 40.5922L44.7892 38.1012L55.6841 37.0118C55.9414 36.9871 56.2004 36.9871 56.4577 37.0118L67.3526 38.1012L66.8175 40.6167C66.0078 40.3756 58.8365 38.256 56.0696 38.256C53.3027 38.256 46.1314 40.3756 45.4107 40.5922ZM67.6736 45.992V43.4133C68.0156 43.4133 68.3435 43.5491 68.5853 43.7909C68.8271 44.0327 68.9629 44.3607 68.9629 44.7026C68.9629 45.0446 68.8271 45.3725 68.5853 45.6143C68.3435 45.8561 68.0156 45.992 67.6736 45.992ZM56.0696 27.9413C58.1325 27.9413 64.1537 29.6058 66.3843 30.2621V35.4194L56.7143 34.4524C56.2855 34.4095 55.8536 34.4095 55.4249 34.4524L45.7704 35.4169L45.8374 30.2595C47.9855 29.6058 54.0067 27.9413 56.0696 27.9413ZM43.1762 44.7026C43.1762 44.3607 43.3121 44.0327 43.5539 43.7909C43.7957 43.5491 44.1236 43.4133 44.4656 43.4133V45.992C44.1236 45.992 43.7957 45.8561 43.5539 45.6143C43.3121 45.3725 43.1762 45.0446 43.1762 44.7026ZM47.0442 51.1493V42.8009C49.9886 41.8796 53.0089 41.2216 56.0696 40.8346C59.1303 41.2211 62.1506 41.8786 65.0949 42.7996V51.1493C65.0949 52.1752 64.6874 53.159 63.962 53.8844C63.2366 54.6098 62.2528 55.0173 61.2269 55.0173H50.9122C49.8864 55.0173 48.9025 54.6098 48.1772 53.8844C47.4518 53.159 47.0442 52.1752 47.0442 51.1493ZM68.9629 75.6467V70.4894H66.3843V75.6467H45.7549V70.4894H43.1762V75.6467H36.7876C37.107 72.2151 38.6641 69.017 41.1682 66.6491C43.6723 64.2811 46.9524 62.9051 50.3965 62.7778L55.1516 67.5329C55.3934 67.7746 55.7213 67.9104 56.0631 67.9104C56.405 67.9104 56.7329 67.7746 56.9747 67.5329L61.7427 62.7778C65.1867 62.9051 68.4668 64.2811 70.971 66.6491C73.4751 69.017 75.0321 72.2151 75.3516 75.6467H68.9629Z" fill="white"/>
<path d="M21.2576 55.0173H10.9429V57.596H21.2576V55.0173Z" fill="white"/>
<path d="M13.5215 49.86H10.9429V52.4387H13.5215V49.86Z" fill="white"/>
<path d="M21.2574 49.86H16.1001V52.4387H21.2574V49.86Z" fill="white"/>
<path d="M56.0695 52.4387C60.8555 52.4387 61.2268 49.4732 61.2268 48.5707H58.6481C58.6481 48.8891 58.6481 49.86 56.0695 49.86C53.4908 49.86 53.4908 48.8891 53.4908 48.5707H50.9121C50.9121 49.4732 51.2834 52.4387 56.0695 52.4387Z" fill="white"/>
<path d="M52.2014 44.7026C52.9135 44.7026 53.4908 44.1254 53.4908 43.4133C53.4908 42.7012 52.9135 42.124 52.2014 42.124C51.4894 42.124 50.9121 42.7012 50.9121 43.4133C50.9121 44.1254 51.4894 44.7026 52.2014 44.7026Z" fill="white"/>
<path d="M59.9373 44.7026C60.6494 44.7026 61.2266 44.1254 61.2266 43.4133C61.2266 42.7012 60.6494 42.124 59.9373 42.124C59.2252 42.124 58.6479 42.7012 58.6479 43.4133C58.6479 44.1254 59.2252 44.7026 59.9373 44.7026Z" fill="white"/>
</svg>
