<svg width="97" height="98" viewBox="0 0 97 98" fill="none" xmlns="http://www.w3.org/2000/svg">
<g clip-path="url(#clip0_5173_1153)">
<path d="M89.8496 44.3849L87.349 34.3825C88.0327 34.2373 88.5456 33.6308 88.5456 32.9041V31.2914C88.5456 27.7898 85.6968 24.9412 82.1955 24.9412H70.8056V21.6147C70.8056 19.8917 69.4039 18.49 67.6809 18.49H9.62197C7.89892 18.49 6.49725 19.8917 6.49725 21.6147V49.0314C6.49725 49.8664 7.17413 50.5434 8.00925 50.5434C8.84418 50.5434 9.52126 49.8666 9.52126 49.0314V21.6147C9.52126 21.5591 9.56633 21.514 9.62197 21.514H67.6807C67.7363 21.514 67.7814 21.5591 67.7814 21.6147V49.0318C67.7814 49.8668 68.4583 50.5438 69.2934 50.5438C70.1283 50.5438 70.8054 49.8669 70.8054 49.0318V47.3178H88.6411C88.6426 47.3178 88.6437 47.3182 88.645 47.3182C88.6465 47.3182 88.6479 47.318 88.6492 47.318C90.8439 47.3195 92.7075 48.76 93.3476 50.7451H88.6462C87.8112 50.7451 87.1342 51.4219 87.1342 52.2571V55.4825C87.1342 58.0948 89.2593 60.2199 91.8716 60.2199H93.5852V66.8724H89.6318C88.3331 63.1225 84.7684 60.4213 80.5824 60.4213C76.3964 60.4213 72.8315 63.1225 71.533 66.8724H70.805V55.4823C70.805 54.6474 70.1281 53.9703 69.293 53.9703C68.4581 53.9703 67.781 54.6472 67.781 55.4823V66.872H36.4116C35.1129 63.1221 31.5482 60.421 27.3622 60.421C23.1763 60.421 19.6113 63.1221 18.3128 66.872H9.62197C9.56633 66.872 9.52126 66.8269 9.52126 66.7713V63.445H16.073C16.908 63.445 17.585 62.7681 17.585 61.933C17.585 61.0979 16.9081 60.421 16.073 60.421H1.55839C0.72346 60.421 0.0463867 61.0979 0.0463867 61.933C0.0463867 62.7681 0.723271 63.445 1.55839 63.445H6.49744V66.7713C6.49744 68.4944 7.89911 69.896 9.62216 69.896H17.7893C17.7889 69.9296 17.7866 69.963 17.7866 69.9967C17.7866 75.2768 22.0824 79.5723 27.3622 79.5723C32.6421 79.5723 36.9378 75.2768 36.9378 69.9967C36.9378 69.9628 36.9355 69.9296 36.9352 69.896H71.0095C71.0091 69.9296 71.0068 69.963 71.0068 69.9967C71.0068 75.2768 75.3026 79.5723 80.5824 79.5723C85.8622 79.5723 90.158 75.2768 90.158 69.9967C90.158 69.9628 90.1557 69.9296 90.1553 69.896H95.0972C95.9322 69.896 96.6092 69.2191 96.6092 68.384V52.2567C96.6094 48.275 93.6716 44.9667 89.8496 44.3849ZM70.8056 27.965H82.1955C84.0296 27.965 85.5218 29.4572 85.5218 31.2914V31.3921H70.8056V27.965ZM70.8056 44.294V34.4159H84.2405L86.71 44.294H70.8056ZM27.3622 76.5489C23.7496 76.5489 20.8105 73.6099 20.8105 69.9971C20.8105 66.3843 23.7496 63.4454 27.3622 63.4454C30.9748 63.4454 33.914 66.3843 33.914 69.9971C33.914 73.6099 30.9748 76.5489 27.3622 76.5489ZM80.5828 76.5489C76.9702 76.5489 74.031 73.6099 74.031 69.9971C74.031 66.3843 76.9702 63.4454 80.5828 63.4454C84.1954 63.4454 87.1345 66.3843 87.1345 69.9971C87.1345 73.6099 84.1954 76.5489 80.5828 76.5489ZM93.5856 57.1959H91.872C90.9271 57.1959 90.1584 56.4272 90.1584 55.4823V53.7687H93.5854V57.1959H93.5856Z" fill="white"/>
<path d="M27.362 66.8724C25.639 66.8724 24.2373 68.2741 24.2373 69.9971C24.2373 71.7201 25.639 73.1218 27.362 73.1218C29.0851 73.1218 30.4867 71.7201 30.4867 69.9971C30.4867 68.2741 29.0851 66.8724 27.362 66.8724Z" fill="white"/>
<path d="M80.5827 66.8724C78.8597 66.8724 77.458 68.2741 77.458 69.9971C77.458 71.7201 78.8597 73.1218 80.5827 73.1218C82.3058 73.1218 83.7074 71.7201 83.7074 69.9971C83.7074 68.2741 82.3058 66.8724 80.5827 66.8724Z" fill="white"/>
<path d="M62.8423 60.4215H40.264C39.429 60.4215 38.752 61.0984 38.752 61.9335C38.752 62.7686 39.4288 63.4455 40.264 63.4455H62.8423C63.6773 63.4455 64.3544 62.7686 64.3544 61.9335C64.3544 61.0984 63.6775 60.4215 62.8423 60.4215Z" fill="white"/>
<path d="M24.1369 53.9705H4.78398C3.94905 53.9705 3.27197 54.6473 3.27197 55.4825C3.27197 56.3176 3.94886 56.9945 4.78398 56.9945H24.1369C24.9719 56.9945 25.6489 56.3176 25.6489 55.4825C25.6489 54.6473 24.9719 53.9705 24.1369 53.9705Z" fill="white"/>
<path d="M52.6223 33.4475C52.032 32.8572 51.0745 32.8572 50.4842 33.4477L37.0385 46.8931L30.0439 39.8985C29.4534 39.308 28.4961 39.308 27.9058 39.8985C27.3153 40.489 27.3153 41.4462 27.9058 42.0367L35.9695 50.1004C36.2647 50.3958 36.6517 50.5433 37.0385 50.5433C37.4253 50.5433 37.8125 50.3958 38.1075 50.1004L52.6221 35.5858C53.2126 34.9951 53.2126 34.038 52.6223 33.4475Z" fill="white"/>
</g>
<defs>
<clipPath id="clip0_5173_1153">
<rect width="96.563" height="96.563" fill="white" transform="translate(0.0463867 0.749939)"/>
</clipPath>
</defs>
</svg>
