<svg width="94" height="94" viewBox="0 0 94 94" fill="none" xmlns="http://www.w3.org/2000/svg">
<path d="M56.8593 34.0707V7.8999H10.3335V76.2347H37.9582" stroke="white" stroke-width="2.63354" stroke-miterlimit="10" stroke-linecap="round" stroke-linejoin="round"/>
<path d="M72.937 68.9651C77.6739 69.8505 83.0302 70.8334 83.0302 86.4123" stroke="white" stroke-width="2.63354" stroke-miterlimit="10" stroke-linecap="round" stroke-linejoin="round"/>
<path d="M52.4973 68.9651C47.759 69.8505 42.3198 70.8334 42.3198 86.4123" stroke="white" stroke-width="2.63354" stroke-miterlimit="10" stroke-linecap="round" stroke-linejoin="round"/>
<path d="M71.3984 52.9718V56.5049C71.3984 62.5925 68.4512 67.5111 62.6602 67.5111C57.0291 67.5111 54.1126 62.8687 53.9512 57.0283V52.9718" stroke="white" stroke-width="2.63354" stroke-miterlimit="10" stroke-linecap="round" stroke-linejoin="round"/>
<path d="M65.5827 67.5111L65.1668 69.9959C64.9996 70.9962 64.1709 71.7551 63.1604 71.8351L62.6748 71.8729L65.5827 77.6886" stroke="white" stroke-width="2.63354" stroke-miterlimit="10" stroke-linecap="round" stroke-linejoin="round"/>
<path d="M59.7671 67.5111L60.1829 69.9959C60.3501 70.9962 61.1789 71.7551 62.1893 71.8351L62.675 71.8729L59.7671 77.6886" stroke="white" stroke-width="2.63354" stroke-miterlimit="10" stroke-linecap="round" stroke-linejoin="round"/>
<path d="M62.6749 72.9081L62.7258 72.9372L62.6749 73.0215L62.624 72.9372L62.6749 72.9081Z" stroke="white" stroke-width="2.63354" stroke-miterlimit="10" stroke-linecap="round" stroke-linejoin="round"/>
<path d="M72.9439 68.9578L65.7251 67.5111" stroke="white" stroke-width="2.63354" stroke-miterlimit="10" stroke-linecap="round" stroke-linejoin="round"/>
<path d="M52.4976 68.9578L59.7672 67.5111" stroke="white" stroke-width="2.63354" stroke-miterlimit="10" stroke-linecap="round" stroke-linejoin="round"/>
<path d="M55.4053 68.9651L62.6749 86.4123L70.0507 68.9651" stroke="white" stroke-width="2.63354" stroke-miterlimit="10" stroke-linecap="round" stroke-linejoin="round"/>
<path d="M77.2607 77.6887V70.419" stroke="white" stroke-width="2.63354" stroke-miterlimit="10" stroke-linecap="round" stroke-linejoin="round"/>
<path d="M48.1357 77.6887V70.419" stroke="white" stroke-width="2.63354" stroke-miterlimit="10" stroke-linecap="round" stroke-linejoin="round"/>
<path d="M62.5762 48.61H52.4976L53.6244 52.4237C53.6244 52.4237 59.4503 54.4257 62.6765 54.4257C65.9014 54.4257 72.0195 52.3306 72.0195 52.3306L72.8526 48.61H62.7769" stroke="white" stroke-width="2.63354" stroke-miterlimit="10" stroke-linecap="round" stroke-linejoin="round"/>
<path d="M52.4972 48.61L49.5894 42.7943C49.5894 42.7943 58.3987 38.4325 62.6747 38.4325C66.9508 38.4325 75.7601 42.7943 75.7601 42.7943L72.8523 48.61" stroke="white" stroke-width="2.63354" stroke-miterlimit="10" stroke-linecap="round" stroke-linejoin="round"/>
<path d="M62.675 46.4291C63.8795 46.4291 64.8559 45.4527 64.8559 44.2482C64.8559 43.0437 63.8795 42.0673 62.675 42.0673C61.4706 42.0673 60.4941 43.0437 60.4941 44.2482C60.4941 45.4527 61.4706 46.4291 62.675 46.4291Z" fill="white"/>
<path d="M17.603 57.3336H29.2345V68.9651H17.603V57.3336Z" stroke="white" stroke-width="2.63354" stroke-miterlimit="10" stroke-linecap="round" stroke-linejoin="round"/>
<path d="M35.0503 66.0572H42.32" stroke="white" stroke-width="2.63354" stroke-miterlimit="10" stroke-linecap="round" stroke-linejoin="round"/>
<path d="M35.0503 60.2415H46.6817" stroke="white" stroke-width="2.63354" stroke-miterlimit="10" stroke-linecap="round" stroke-linejoin="round"/>
<path d="M21.9648 36.9786H17.603V48.61H29.2345V45.7022" stroke="white" stroke-width="2.63354" stroke-miterlimit="10" stroke-linecap="round" stroke-linejoin="round"/>
<path d="M35.0503 45.7021H42.32" stroke="white" stroke-width="2.63354" stroke-miterlimit="10" stroke-linecap="round" stroke-linejoin="round"/>
<path d="M35.0503 39.8864H43.7739" stroke="white" stroke-width="2.63354" stroke-miterlimit="10" stroke-linecap="round" stroke-linejoin="round"/>
<path d="M21.9648 16.6235H17.603V28.255H29.2345V25.3471" stroke="white" stroke-width="2.63354" stroke-miterlimit="10" stroke-linecap="round" stroke-linejoin="round"/>
<path d="M35.0503 25.3471H49.5896" stroke="white" stroke-width="2.63354" stroke-miterlimit="10" stroke-linecap="round" stroke-linejoin="round"/>
<path d="M35.0503 19.5314H49.5896" stroke="white" stroke-width="2.63354" stroke-miterlimit="10" stroke-linecap="round" stroke-linejoin="round"/>
<path d="M21.9648 20.9853L24.8727 23.8932L29.2345 18.0775" stroke="white" stroke-width="2.63354" stroke-miterlimit="10" stroke-linecap="round" stroke-linejoin="round"/>
<path d="M21.9648 41.3404L24.8727 44.2482L29.2345 38.4325" stroke="white" stroke-width="2.63354" stroke-miterlimit="10" stroke-linecap="round" stroke-linejoin="round"/>
</svg>
