<svg width="75" height="75" viewBox="0 0 75 75" fill="none" xmlns="http://www.w3.org/2000/svg">
<g clip-path="url(#clip0_5173_1146)">
<path d="M60.2488 51.3006C57.9401 52.1315 55.6321 52.9632 53.3245 53.7955C51.7816 54.3515 50.2388 54.9075 48.6961 55.4636C48.8035 54.7359 48.7529 53.9937 48.5477 53.2874C48.3424 52.581 47.9875 51.9272 47.5069 51.3704C47.0263 50.8136 46.4314 50.3669 45.7626 50.0606C45.0939 49.7544 44.367 49.5958 43.6315 49.5957H35.7725C35.2219 49.6023 34.6771 49.4828 34.1798 49.2464C24.6349 44.8731 21.1871 44.9519 13.6334 45.1244C13.3343 45.1313 13.028 45.1382 12.7145 45.1451V42.7616C12.7145 42.4942 12.6083 42.2378 12.4192 42.0487C12.2302 41.8596 11.9737 41.7534 11.7063 41.7534H1.95249C1.68511 41.7534 1.42868 41.8596 1.23962 42.0487C1.05055 42.2378 0.944336 42.4942 0.944336 42.7616L0.944336 69.1715C0.944336 69.4389 1.05055 69.6953 1.23962 69.8844C1.42868 70.0735 1.68511 70.1797 1.95249 70.1797H11.7061C11.9734 70.1797 12.2299 70.0735 12.4189 69.8844C12.608 69.6953 12.7142 69.4389 12.7142 69.1715V66.3088C17.037 66.3808 17.8458 66.7901 22.7061 69.2532C23.3878 69.5988 24.1464 69.9828 25.0004 70.4101C27.3378 71.6862 29.9582 72.3547 32.6212 72.3544C34.7671 72.3544 37.006 71.9368 39.3627 71.1014C39.372 71.0983 39.3815 71.0947 39.3915 71.0911L63.9615 61.5583C65.3202 61.0647 66.4274 60.052 67.0399 58.7426C67.6524 57.4332 67.7201 55.9342 67.2281 54.575C66.7361 53.2157 65.7247 52.1073 64.416 51.4933C63.1074 50.8793 61.6085 50.8098 60.2487 51.3002L60.2488 51.3006ZM10.6975 68.1634H2.96064V43.77H10.6975V68.1634ZM63.2653 59.6661L63.2426 59.6746L38.6757 69.2058C33.9518 70.8755 29.7854 70.6855 25.9404 68.6257C25.9319 68.6211 25.9236 68.6168 25.9151 68.6126C25.0592 68.1847 24.3003 67.8 23.6182 67.4544C18.5848 64.9035 17.5486 64.3786 12.7145 64.2925V47.1625C13.044 47.1553 13.3657 47.148 13.6794 47.1407C21.133 46.9698 24.2169 46.9 33.3408 51.0806C34.1019 51.4361 34.9325 51.6178 35.7725 51.6126H43.6315C44.4536 51.613 45.242 51.9395 45.8237 52.5206C46.4054 53.1016 46.7328 53.8896 46.7341 54.7118C46.7354 55.3828 46.5158 56.0357 46.1094 56.5697C46.1033 56.5776 46.0993 56.5865 46.0935 56.5947C46.0878 56.6029 46.0772 56.6123 46.0697 56.6218C45.7806 56.9927 45.4107 57.2929 44.9882 57.4995C44.5658 57.7062 44.1018 57.8139 43.6315 57.8146H30.8327C30.5653 57.8146 30.3089 57.9208 30.1198 58.1099C29.9308 58.2989 29.8245 58.5553 29.8245 58.8227C29.8245 59.0901 29.9308 59.3465 30.1198 59.5356C30.3089 59.7247 30.5653 59.8309 30.8327 59.8309H43.6315C44.3712 59.8309 45.1021 59.6699 45.7733 59.359C46.4446 59.0482 47.0401 58.5948 47.5185 58.0306C49.6824 57.2517 51.8458 56.4723 54.0085 55.6923C56.3158 54.8604 58.6236 54.0289 60.9319 53.1978C61.357 53.0428 61.8085 52.9731 62.2606 52.993C62.7126 53.0128 63.1563 53.1216 63.5662 53.3133C63.9761 53.505 64.3441 53.7757 64.6492 54.1099C64.9542 54.4441 65.1903 54.8352 65.3438 55.2609C65.4974 55.6865 65.5654 56.1383 65.5439 56.5903C65.5225 57.0422 65.4121 57.4855 65.2189 57.8947C65.0258 58.3039 64.7538 58.671 64.4185 58.9748C64.0832 59.2787 63.6912 59.5134 63.2651 59.6654L63.2653 59.6661ZM73.6752 2.44635H35.691C35.5585 2.44634 35.4273 2.47245 35.3049 2.52318C35.1825 2.57392 35.0713 2.64828 34.9776 2.74203L26.3963 11.3276C26.3026 11.4212 26.2284 11.5324 26.1777 11.6547C26.1271 11.777 26.101 11.9081 26.101 12.0405V42.533C26.101 42.8004 26.2072 43.0568 26.3963 43.2459C26.5854 43.435 26.8418 43.5412 27.1092 43.5412H65.0934C65.2258 43.5412 65.357 43.5151 65.4793 43.4644C65.6017 43.4137 65.7128 43.3394 65.8065 43.2458L74.388 34.664C74.577 34.475 74.6832 34.2188 74.6834 33.9515V3.4545C74.6834 3.18712 74.5772 2.9307 74.3881 2.74163C74.199 2.55257 73.9426 2.44635 73.6752 2.44635ZM56.2699 4.46265L49.7011 11.0313H44.5139L51.0792 4.46265H56.2699ZM49.1102 13.0488V16.8618H43.0886V13.0488H49.1102ZM36.1088 4.46265H48.2279L41.6624 11.0319H29.5433L36.1088 4.46265ZM64.085 41.5239H28.1179V13.0488H41.0716V17.8702C41.0716 18.1376 41.1778 18.394 41.3669 18.5831C41.556 18.7721 41.8124 18.8783 42.0798 18.8783H50.1182C50.3856 18.8783 50.642 18.7721 50.8311 18.5831C51.0201 18.394 51.1263 18.1376 51.1263 17.8702V13.0488H64.0844L64.085 41.5239ZM64.6755 11.0313H52.5532L59.122 4.46265H71.2413L64.6755 11.0313ZM72.6671 33.5338L66.1026 40.0983V12.4579L72.6671 5.88991V33.5338ZM44.2931 31.6479L49.7038 26.2407C49.7975 26.1471 49.9087 26.0729 50.0311 26.0222C50.1534 25.9716 50.2846 25.9455 50.417 25.9455C50.5494 25.9456 50.6806 25.9717 50.8029 26.0224C50.9252 26.0731 51.0364 26.1474 51.13 26.2411C51.2236 26.3348 51.2979 26.4459 51.3485 26.5683C51.3992 26.6907 51.4252 26.8218 51.4252 26.9542C51.4252 27.0867 51.3991 27.2178 51.3483 27.3401C51.2976 27.4625 51.2233 27.5736 51.1297 27.6673L45.0059 33.7869C44.9122 33.8805 44.8011 33.9548 44.6788 34.0054C44.5565 34.0561 44.4254 34.0822 44.293 34.0822C44.1606 34.0822 44.0294 34.0561 43.9071 34.0054C43.7848 33.9548 43.6737 33.8805 43.58 33.7869L41.0731 31.2795C40.884 31.0904 40.7778 30.834 40.7778 30.5666C40.7778 30.2992 40.884 30.0427 41.0731 29.8537C41.2621 29.6646 41.5186 29.5584 41.786 29.5584C42.0534 29.5584 42.3098 29.6646 42.4989 29.8537L44.2931 31.6479ZM36.3686 30.0121C36.3686 31.937 36.9394 33.8188 38.0089 35.4193C39.0783 37.0199 40.5984 38.2674 42.3768 39.004C44.1553 39.7407 46.1122 39.9334 48.0002 39.5579C49.8882 39.1824 51.6224 38.2554 52.9836 36.8942C54.3447 35.5331 55.2717 33.7988 55.6473 31.9109C56.0228 30.0229 55.8301 28.0659 55.0934 26.2875C54.3567 24.509 53.1093 22.989 51.5087 21.9195C49.9081 20.8501 48.0264 20.2792 46.1014 20.2792C43.521 20.2822 41.0471 21.3085 39.2225 23.1332C37.3979 24.9578 36.3715 27.4317 36.3686 30.0121ZM53.8172 30.0121C53.8172 31.5382 53.3647 33.03 52.5169 34.2988C51.669 35.5677 50.4639 36.5567 49.054 37.1407C47.6441 37.7247 46.0927 37.8775 44.5959 37.5798C43.0992 37.282 41.7243 36.5471 40.6452 35.468C39.5661 34.3889 38.8313 33.0141 38.5336 31.5173C38.2359 30.0205 38.3887 28.4691 38.9727 27.0592C39.5567 25.6493 40.5457 24.4442 41.8146 23.5964C43.0835 22.7486 44.5754 22.2961 46.1014 22.2961C48.1471 22.2984 50.1083 23.1121 51.5548 24.5586C53.0013 26.0052 53.815 27.9664 53.8172 30.0121Z" fill="white"/>
</g>
<defs>
<clipPath id="clip0_5173_1146">
<rect width="73.739" height="73.739" fill="white" transform="translate(0.944336 0.530884)"/>
</clipPath>
</defs>
</svg>
