<svg width="78" height="78" viewBox="0 0 78 78" fill="none" xmlns="http://www.w3.org/2000/svg">
<path fill-rule="evenodd" clip-rule="evenodd" d="M38.3504 4.51709H38.7186C46.1247 4.51705 51.9287 4.51702 56.4572 5.12586C61.0924 5.74905 64.75 7.04951 67.6208 9.92036C70.4917 12.7912 71.7921 16.4488 72.4153 21.084C73.0242 25.6125 73.0241 31.4165 73.0241 38.8226V39.1907C73.0241 46.5968 73.0242 52.4008 72.4153 56.9294C71.7921 61.5646 70.4917 65.2221 67.6208 68.093C64.75 70.9638 61.0924 72.2643 56.4572 72.8875C51.9287 73.4963 46.1247 73.4963 38.7186 73.4963H38.3504C30.9443 73.4963 25.1403 73.4963 20.6118 72.8875C15.9766 72.2643 12.319 70.9638 9.44819 68.093C6.57734 65.2221 5.27688 61.5646 4.65369 56.9294C4.04485 52.4008 4.04488 46.5969 4.04492 39.1908V38.8226C4.04488 31.4165 4.04485 25.6125 4.65369 21.084C5.27688 16.4488 6.57734 12.7912 9.44819 9.92036C12.319 7.04951 15.9766 5.74905 20.6118 5.12586C25.1403 4.51702 30.9443 4.51705 38.3504 4.51709ZM21.2531 9.89545C17.1515 10.4469 14.6788 11.4957 12.8511 13.3233C11.0235 15.151 9.97472 17.6237 9.42328 21.7252C8.86253 25.896 8.85742 31.3765 8.85742 39.0067C8.85742 46.6368 8.86253 52.1173 9.42328 56.2881C9.97472 60.3897 11.0235 62.8624 12.8511 64.69C14.6788 66.5177 17.1515 67.5665 21.2531 68.1179C25.4238 68.6786 30.9044 68.6838 38.5345 68.6838C46.1646 68.6838 51.6452 68.6786 55.8159 68.1179C59.9175 67.5665 62.3902 66.5177 64.2179 64.69C66.0455 62.8624 67.0943 60.3897 67.6457 56.2881C68.2065 52.1173 68.2116 46.6368 68.2116 39.0067C68.2116 31.3765 68.2065 25.896 67.6457 21.7252C67.0943 17.6237 66.0455 15.151 64.2179 13.3233C62.3902 11.4957 59.9175 10.4469 55.8159 9.89545C51.6452 9.3347 46.1646 9.32959 38.5345 9.32959C30.9044 9.32959 25.4238 9.3347 21.2531 9.89545ZM33.7773 21.2226C34.7397 22.1391 34.7768 23.6622 33.8603 24.6245L24.6936 34.2495C24.2395 34.7264 23.6097 34.9963 22.9512 34.9963C22.2926 34.9963 21.6629 34.7264 21.2087 34.2495L17.542 30.3995C16.6255 29.4372 16.6627 27.9141 17.625 26.9976C18.5874 26.081 20.1105 26.1182 21.027 27.0805L22.9512 29.1009L30.3754 21.3055C31.2919 20.3432 32.815 20.306 33.7773 21.2226ZM39.3366 29.3817C39.3366 28.0527 40.4139 26.9754 41.7428 26.9754H57.7845C59.1134 26.9754 60.1908 28.0527 60.1908 29.3817C60.1908 30.7106 59.1134 31.7879 57.7845 31.7879H41.7428C40.4139 31.7879 39.3366 30.7106 39.3366 29.3817ZM33.7773 43.6809C34.7397 44.5974 34.7768 46.1205 33.8603 47.0828L24.6936 56.7078C24.2395 57.1847 23.6097 57.4546 22.9512 57.4546C22.2926 57.4546 21.6629 57.1847 21.2087 56.7078L17.542 52.8578C16.6255 51.8955 16.6627 50.3724 17.625 49.4559C18.5874 48.5394 20.1105 48.5765 21.027 49.5389L22.9512 51.5593L30.3754 43.7639C31.2919 42.8015 32.815 42.7644 33.7773 43.6809ZM39.3366 51.84C39.3366 50.5111 40.4139 49.4338 41.7428 49.4338H57.7845C59.1134 49.4338 60.1908 50.5111 60.1908 51.84C60.1908 53.1689 59.1134 54.2463 57.7845 54.2463H41.7428C40.4139 54.2463 39.3366 53.1689 39.3366 51.84Z" fill="white"/>
</svg>
