<svg width="69" height="69" viewBox="0 0 69 69" fill="none" xmlns="http://www.w3.org/2000/svg">
<path d="M18.4596 15.2493C18.4596 17.0213 17.0232 18.4577 15.2513 18.4577C13.4794 18.4577 12.043 17.0213 12.043 15.2493C12.043 13.4774 13.4794 12.041 15.2513 12.041C17.0232 12.041 18.4596 13.4774 18.4596 15.2493Z" fill="white"/>
<path d="M28.0846 15.2493C28.0846 17.0213 26.6482 18.4577 24.8763 18.4577C23.1044 18.4577 21.668 17.0213 21.668 15.2493C21.668 13.4774 23.1044 12.041 24.8763 12.041C26.6482 12.041 28.0846 13.4774 28.0846 15.2493Z" fill="white"/>
<path d="M34.5013 18.4577C36.2732 18.4577 37.7096 17.0213 37.7096 15.2493C37.7096 13.4774 36.2732 12.041 34.5013 12.041C32.7294 12.041 31.293 13.4774 31.293 15.2493C31.293 17.0213 32.7294 18.4577 34.5013 18.4577Z" fill="white"/>
<path fill-rule="evenodd" clip-rule="evenodd" d="M34.3172 0.0097663C26.9111 0.009725 21.1071 0.00969229 16.5786 0.618536C11.9434 1.24172 8.28584 2.54219 5.41499 5.41304C2.54414 8.28389 1.24367 11.9415 0.620489 16.5767C0.259904 19.2587 0.112885 22.388 0.0529512 26.0326C0.025878 26.1771 0.0117194 26.3262 0.0117194 26.4785C0.0117194 26.6065 0.0217145 26.7322 0.0409667 26.8548C0.0116905 29.1402 0.0117044 31.6218 0.0117194 34.3153V34.6834C0.0116781 42.0895 0.0116454 47.8935 0.620489 52.4221C1.24367 57.0572 2.54414 60.7148 5.41499 63.5857C8.28584 66.4565 11.9434 67.757 16.5786 68.3802C21.1071 68.989 26.9111 68.989 34.3172 68.9889H34.6854C42.0915 68.989 47.8955 68.989 52.424 68.3802C57.0592 67.757 60.7168 66.4565 63.5876 63.5857C66.4585 60.7148 67.7589 57.0572 68.3821 52.4221C68.991 47.8935 68.9909 42.0895 68.9909 34.6834V34.3153C68.9909 31.6218 68.9909 29.1402 68.9616 26.8548C68.9809 26.7322 68.9909 26.6065 68.9909 26.4785C68.9909 26.3262 68.9767 26.1771 68.9497 26.0326C68.8897 22.388 68.7427 19.2587 68.3821 16.5767C67.7589 11.9415 66.4585 8.28389 63.5876 5.41304C60.7168 2.54219 57.0592 1.24172 52.424 0.618536C47.8955 0.00969229 42.0915 0.009725 34.6854 0.0097663H34.3172ZM4.82422 34.4994C4.82422 32.4829 4.82458 30.6165 4.83545 28.8848H22.4701L22.4701 63.3744C22.4701 63.6047 22.5024 63.8274 22.5628 64.0383C20.5639 63.9554 18.7981 63.8228 17.2199 63.6106C13.1183 63.0591 10.6456 62.0104 8.81794 60.1827C6.99029 58.3551 5.94151 55.8823 5.39008 51.7808C4.82933 47.61 4.82422 42.1295 4.82422 34.4994ZM27.1548 64.1499C29.3581 64.1758 31.7944 64.1764 34.5013 64.1764C42.1314 64.1764 47.612 64.1713 51.7827 63.6106C55.8843 63.0591 58.357 62.0104 60.1847 60.1827C62.0123 58.3551 63.0611 55.8823 63.6125 51.7808C64.1733 47.61 64.1784 42.1295 64.1784 34.4994C64.1784 32.4829 64.178 30.6165 64.1672 28.8848H27.2826L27.2826 63.3744C27.2826 63.6457 27.2376 63.9066 27.1548 64.1499ZM5.39008 17.2179C5.12591 19.1827 4.98506 21.4383 4.90996 24.0723H64.0926C64.0176 21.4383 63.8767 19.1827 63.6125 17.2179C63.0611 13.1164 62.0123 10.6436 60.1847 8.81599C58.357 6.98834 55.8843 5.93956 51.7827 5.38812C47.612 4.82738 42.1314 4.82227 34.5013 4.82227C26.8712 4.82227 21.3906 4.82738 17.2199 5.38812C13.1183 5.93956 10.6456 6.98834 8.81794 8.81599C6.99029 10.6436 5.94151 13.1164 5.39008 17.2179Z" fill="white"/>
</svg>
