<svg width="70" height="57" viewBox="0 0 70 57" fill="none" xmlns="http://www.w3.org/2000/svg">
<path fill-rule="evenodd" clip-rule="evenodd" d="M34.5345 5.33057C31.1324 5.33057 28.4087 6.38276 21.9124 8.98129L12.9019 12.5855C9.66011 13.8822 7.41374 14.7842 5.95772 15.5475C5.81543 15.6221 5.6872 15.6922 5.57183 15.7576C5.6872 15.8231 5.81543 15.8932 5.95772 15.9678C7.41374 16.7311 9.66011 17.6331 12.9019 18.9298L21.9124 22.534C28.4087 25.1325 31.1324 26.1847 34.5345 26.1847C37.9367 26.1847 40.6603 25.1325 47.1566 22.534L56.1671 18.9298C59.4089 17.6331 61.6553 16.7311 63.1113 15.9678C63.2536 15.8932 63.3818 15.8231 63.4972 15.7576C63.3818 15.6922 63.2536 15.6221 63.1113 15.5475C61.6553 14.7842 59.4089 13.8822 56.1671 12.5855L47.1566 8.98129C40.6603 6.38276 37.9367 5.33057 34.5345 5.33057ZM20.4962 4.36453C26.5175 1.95527 30.1095 0.518066 34.5345 0.518066C38.9595 0.518066 42.5515 1.95526 48.5728 4.36453C48.6955 4.41362 48.8192 4.46311 48.9439 4.513L58.0999 8.17539C61.1625 9.40038 63.6431 10.3926 65.3458 11.2853C66.2076 11.7371 67.0424 12.2493 67.6862 12.8667C68.3476 13.5012 69.0241 14.4633 69.0241 15.7576C69.0241 17.052 68.3476 18.0141 67.6862 18.6486C67.0424 19.266 66.2076 19.7782 65.3458 20.23C63.6431 21.1227 61.1625 22.1149 58.0999 23.3399L48.9439 27.0023C48.8192 27.0522 48.6955 27.1017 48.5728 27.1508C42.5514 29.56 38.9595 30.9972 34.5345 30.9972C30.1095 30.9972 26.5176 29.56 20.4962 27.1508C20.3735 27.1017 20.2498 27.0522 20.1251 27.0023L10.9691 23.3399C7.90651 22.1149 5.42596 21.1227 3.72317 20.23C2.8614 19.7782 2.02656 19.266 1.38282 18.6486C0.721391 18.0141 0.0449219 17.052 0.0449219 15.7576C0.0449219 14.4633 0.721391 13.5012 1.38282 12.8667C2.02656 12.2493 2.8614 11.7371 3.72316 11.2853C5.42596 10.3926 7.90653 9.40037 10.9692 8.17537L20.1251 4.513C20.2498 4.46311 20.3735 4.41362 20.4962 4.36453ZM4.052 26.7945L4.06373 26.8047C4.07785 26.8169 4.10417 26.8395 4.14268 26.8717C4.2197 26.936 4.34544 27.0386 4.51986 27.1734C4.86877 27.443 5.41211 27.8412 6.14973 28.3196C7.62508 29.2764 9.87586 30.5527 12.9019 31.7631L21.9124 35.3673C28.4087 37.9659 31.1324 39.0181 34.5345 39.0181C37.9367 39.0181 40.6603 37.9659 47.1566 35.3673L56.1671 31.7631C59.1932 30.5527 61.4439 29.2764 62.9193 28.3196C63.6569 27.8412 64.2002 27.443 64.5491 27.1734C64.7236 27.0386 64.8493 26.936 64.9263 26.8717C64.9648 26.8395 64.9912 26.8169 65.0053 26.8047L65.012 26.799C65.0136 26.7975 65.0155 26.7958 65.0172 26.7944C66.0065 25.9128 67.5234 25.997 68.409 26.9842C69.2964 27.9734 69.2139 29.4948 68.2246 30.3822L66.6178 28.591C68.2246 30.3822 68.2251 30.3817 68.2246 30.3822L68.2202 30.3861L68.2145 30.3912L68.1997 30.4043L68.1557 30.4427C68.1201 30.4736 68.0717 30.5149 68.0107 30.5658C67.8886 30.6678 67.7157 30.8084 67.4919 30.9813C67.0444 31.3271 66.3931 31.8027 65.5379 32.3573C63.8275 33.4665 61.2998 34.8933 57.9544 36.2314L48.9439 39.8356C48.8192 39.8855 48.6955 39.935 48.5728 39.9841C42.5515 42.3934 38.9595 43.8306 34.5345 43.8306C30.1095 43.8306 26.5176 42.3934 20.4962 39.9841C20.3735 39.935 20.2498 39.8855 20.1251 39.8356L11.1146 36.2314C7.76926 34.8933 5.2415 33.4665 3.53115 32.3573C2.67593 31.8027 2.02463 31.3271 1.57712 30.9813C1.35333 30.8084 1.18041 30.6678 1.05832 30.5658C0.997279 30.5149 0.948932 30.4736 0.913281 30.4427L0.86932 30.4043L0.854477 30.3912L0.84884 30.3861L0.845392 30.3831C0.844885 30.3826 0.844391 30.3822 2.45117 28.591L0.845392 30.3831C-0.143845 29.4957 -0.2274 27.9734 0.660001 26.9842C1.54562 25.9969 3.06262 25.9127 4.052 26.7945ZM65.0123 39.632C65.0139 39.6306 65.0155 39.6291 65.0171 39.6277C66.0065 38.7461 67.5234 38.8303 68.409 39.8175C69.2964 40.8068 69.2139 42.3281 68.2246 43.2155L66.6178 41.4243C68.2246 43.2155 68.2251 43.215 68.2246 43.2155L68.2202 43.2195L68.2145 43.2245L68.1997 43.2376L68.1557 43.276C68.1201 43.3069 68.0717 43.3482 68.0107 43.3992C67.8886 43.5011 67.7157 43.6417 67.4919 43.8146C67.0444 44.1605 66.3931 44.636 65.5379 45.1906C63.8275 46.2998 61.2998 47.7266 57.9544 49.0648L48.9439 52.669C48.8192 52.7189 48.6955 52.7683 48.5728 52.8174C42.5515 55.2267 38.9595 56.6639 34.5345 56.6639C30.1095 56.6639 26.5176 55.2267 20.4962 52.8174C20.3735 52.7683 20.2498 52.7189 20.1251 52.669L11.1146 49.0648C7.76926 47.7266 5.2415 46.2998 3.53115 45.1906C2.67593 44.636 2.02463 44.1605 1.57712 43.8146C1.35333 43.6417 1.18041 43.5011 1.05832 43.3992C0.997279 43.3482 0.948932 43.3069 0.913281 43.276L0.86932 43.2376L0.854477 43.2245L0.84884 43.2195L0.845392 43.2164C0.844885 43.2159 0.844391 43.2155 2.45117 41.4243L0.845392 43.2164C-0.143845 42.329 -0.2274 40.8068 0.660001 39.8175C1.54558 38.8303 3.06246 38.7461 4.05184 39.6277C4.05121 39.6271 4.05247 39.6282 4.05184 39.6277C4.05244 39.6282 4.05493 39.6304 4.05553 39.631C4.05504 39.6305 4.05603 39.6314 4.05553 39.631L4.06373 39.638C4.07785 39.6503 4.10417 39.6728 4.14268 39.705C4.2197 39.7693 4.34544 39.8719 4.51986 40.0067C4.86877 40.2763 5.41211 40.6745 6.14973 41.1529C7.62508 42.1097 9.87586 43.386 12.9019 44.5965L21.9124 48.2007C28.4087 50.7992 31.1324 51.8514 34.5345 51.8514C37.9367 51.8514 40.6603 50.7992 47.1566 48.2007L56.1671 44.5965C59.1932 43.386 61.4439 42.1097 62.9193 41.1529C63.6569 40.6745 64.2002 40.2763 64.5491 40.0067C64.7236 39.8719 64.8493 39.7693 64.9263 39.705C64.9648 39.6728 64.9912 39.6503 65.0053 39.638L65.0123 39.632Z" fill="white"/>
</svg>
