<svg width="305" height="191" viewBox="0 0 305 191" fill="none" xmlns="http://www.w3.org/2000/svg">
<path fill-rule="evenodd" clip-rule="evenodd" d="M17.7468 9.37341C17.7468 13.9982 13.9958 17.7468 9.375 17.7468C4.75104 17.7468 1 13.9982 1 9.37341C1 4.74857 4.75104 0.999991 9.375 0.999991C13.9958 0.999991 17.7468 4.74857 17.7468 9.37341Z" stroke="#FF8B0D"/>
<path fill-rule="evenodd" clip-rule="evenodd" d="M63.2024 9.37341C63.2024 13.9982 59.4514 17.7468 54.8306 17.7468C50.2066 17.7468 46.4556 13.9982 46.4556 9.37341C46.4556 4.74857 50.2066 0.999991 54.8306 0.999991C59.4514 0.999991 63.2024 4.74857 63.2024 9.37341Z" stroke="#FF8B0D"/>
<path fill-rule="evenodd" clip-rule="evenodd" d="M106.265 9.37341C106.265 13.9982 102.514 17.7468 97.8936 17.7468C93.2696 17.7468 89.5186 13.9982 89.5186 9.37341C89.5186 4.74857 93.2696 0.999991 97.8936 0.999991C102.514 0.999991 106.265 4.74857 106.265 9.37341Z" stroke="#FF8B0D"/>
<path fill-rule="evenodd" clip-rule="evenodd" d="M149.329 9.37341C149.329 13.9982 145.581 17.7468 140.958 17.7468C136.334 17.7468 132.583 13.9982 132.583 9.37341C132.583 4.74857 136.334 0.999991 140.958 0.999991C145.581 0.999991 149.329 4.74857 149.329 9.37341Z" stroke="#FF8B0D"/>
<path fill-rule="evenodd" clip-rule="evenodd" d="M192.393 9.37341C192.393 13.9982 188.644 17.7468 184.019 17.7468C179.395 17.7468 175.646 13.9982 175.646 9.37341C175.646 4.74857 179.395 0.999991 184.019 0.999991C188.644 0.999991 192.393 4.74857 192.393 9.37341Z" stroke="#FF8B0D"/>
<path fill-rule="evenodd" clip-rule="evenodd" d="M235.456 9.37341C235.456 13.9982 231.707 17.7468 227.082 17.7468C222.458 17.7468 218.709 13.9982 218.709 9.37341C218.709 4.74857 222.458 0.999991 227.082 0.999991C231.707 0.999991 235.456 4.74857 235.456 9.37341Z" stroke="#FF8B0D"/>
<path fill-rule="evenodd" clip-rule="evenodd" d="M278.519 9.37341C278.519 13.9982 274.771 17.7468 270.149 17.7468C265.521 17.7468 261.772 13.9982 261.772 9.37341C261.772 4.74857 265.521 0.999991 270.149 0.999991C274.771 0.999991 278.519 4.74857 278.519 9.37341Z" stroke="#FF8B0D"/>
<path fill-rule="evenodd" clip-rule="evenodd" d="M321.582 9.37341C321.582 13.9982 317.831 17.7468 313.21 17.7468C308.583 17.7468 304.835 13.9982 304.835 9.37341C304.835 4.74857 308.583 0.999991 313.21 0.999991C317.831 0.999991 321.582 4.74857 321.582 9.37341Z" stroke="#FF8B0D"/>
<path fill-rule="evenodd" clip-rule="evenodd" d="M17.7468 52.4366C17.7468 57.0615 13.9958 60.8101 9.375 60.8101C4.75104 60.8101 1 57.0615 1 52.4366C1 47.8118 4.75104 44.0632 9.375 44.0632C13.9958 44.0632 17.7468 47.8118 17.7468 52.4366Z" stroke="#FF8B0D"/>
<path fill-rule="evenodd" clip-rule="evenodd" d="M63.2024 52.4366C63.2024 57.0615 59.4514 60.8101 54.8306 60.8101C50.2066 60.8101 46.4556 57.0615 46.4556 52.4366C46.4556 47.8118 50.2066 44.0632 54.8306 44.0632C59.4514 44.0632 63.2024 47.8118 63.2024 52.4366Z" stroke="#FF8B0D"/>
<path fill-rule="evenodd" clip-rule="evenodd" d="M106.265 52.4366C106.265 57.0615 102.514 60.8101 97.8936 60.8101C93.2696 60.8101 89.5186 57.0615 89.5186 52.4366C89.5186 47.8118 93.2696 44.0632 97.8936 44.0632C102.514 44.0632 106.265 47.8118 106.265 52.4366Z" stroke="#FF8B0D"/>
<path fill-rule="evenodd" clip-rule="evenodd" d="M149.329 52.4366C149.329 57.0615 145.581 60.8101 140.958 60.8101C136.334 60.8101 132.583 57.0615 132.583 52.4366C132.583 47.8118 136.334 44.0632 140.958 44.0632C145.581 44.0632 149.329 47.8118 149.329 52.4366Z" stroke="#FF8B0D"/>
<path fill-rule="evenodd" clip-rule="evenodd" d="M192.393 52.4366C192.393 57.0615 188.644 60.8101 184.019 60.8101C179.395 60.8101 175.646 57.0615 175.646 52.4366C175.646 47.8118 179.395 44.0632 184.019 44.0632C188.644 44.0632 192.393 47.8118 192.393 52.4366Z" stroke="#FF8B0D"/>
<path fill-rule="evenodd" clip-rule="evenodd" d="M235.456 52.4366C235.456 57.0615 231.707 60.8101 227.082 60.8101C222.458 60.8101 218.709 57.0615 218.709 52.4366C218.709 47.8118 222.458 44.0632 227.082 44.0632C231.707 44.0632 235.456 47.8118 235.456 52.4366Z" stroke="#FF8B0D"/>
<path fill-rule="evenodd" clip-rule="evenodd" d="M278.519 52.4366C278.519 57.0615 274.771 60.8101 270.149 60.8101C265.521 60.8101 261.772 57.0615 261.772 52.4366C261.772 47.8118 265.521 44.0632 270.149 44.0632C274.771 44.0632 278.519 47.8118 278.519 52.4366Z" stroke="#FF8B0D"/>
<path fill-rule="evenodd" clip-rule="evenodd" d="M321.582 52.4366C321.582 57.0615 317.831 60.8101 313.21 60.8101C308.583 60.8101 304.835 57.0615 304.835 52.4366C304.835 47.8118 308.583 44.0632 313.21 44.0632C317.831 44.0632 321.582 47.8118 321.582 52.4366Z" stroke="#FF8B0D"/>
<path fill-rule="evenodd" clip-rule="evenodd" d="M17.7468 95.5C17.7468 100.125 13.9958 103.873 9.375 103.873C4.75104 103.873 1 100.125 1 95.5C1 90.8752 4.75104 87.1266 9.375 87.1266C13.9958 87.1266 17.7468 90.8752 17.7468 95.5Z" stroke="#FF8B0D"/>
<path fill-rule="evenodd" clip-rule="evenodd" d="M63.2024 95.5C63.2024 100.125 59.4514 103.873 54.8306 103.873C50.2066 103.873 46.4556 100.125 46.4556 95.5C46.4556 90.8752 50.2066 87.1266 54.8306 87.1266C59.4514 87.1266 63.2024 90.8752 63.2024 95.5Z" stroke="#FF8B0D"/>
<path fill-rule="evenodd" clip-rule="evenodd" d="M106.265 95.5C106.265 100.125 102.514 103.873 97.8936 103.873C93.2696 103.873 89.5186 100.125 89.5186 95.5C89.5186 90.8752 93.2696 87.1266 97.8936 87.1266C102.514 87.1266 106.265 90.8752 106.265 95.5Z" stroke="#FF8B0D"/>
<path fill-rule="evenodd" clip-rule="evenodd" d="M149.329 95.5C149.329 100.125 145.581 103.873 140.958 103.873C136.334 103.873 132.583 100.125 132.583 95.5C132.583 90.8752 136.334 87.1266 140.958 87.1266C145.581 87.1266 149.329 90.8752 149.329 95.5Z" stroke="#FF8B0D"/>
<path fill-rule="evenodd" clip-rule="evenodd" d="M192.393 95.5C192.393 100.125 188.644 103.873 184.019 103.873C179.395 103.873 175.646 100.125 175.646 95.5C175.646 90.8752 179.395 87.1266 184.019 87.1266C188.644 87.1266 192.393 90.8752 192.393 95.5Z" stroke="#FF8B0D"/>
<path fill-rule="evenodd" clip-rule="evenodd" d="M235.456 95.5C235.456 100.125 231.707 103.873 227.082 103.873C222.458 103.873 218.709 100.125 218.709 95.5C218.709 90.8752 222.458 87.1266 227.082 87.1266C231.707 87.1266 235.456 90.8752 235.456 95.5Z" stroke="#FF8B0D"/>
<path fill-rule="evenodd" clip-rule="evenodd" d="M278.519 95.5C278.519 100.125 274.771 103.873 270.149 103.873C265.521 103.873 261.772 100.125 261.772 95.5C261.772 90.8752 265.521 87.1266 270.149 87.1266C274.771 87.1266 278.519 90.8752 278.519 95.5Z" stroke="#FF8B0D"/>
<path fill-rule="evenodd" clip-rule="evenodd" d="M321.582 95.5C321.582 100.125 317.831 103.873 313.21 103.873C308.583 103.873 304.835 100.125 304.835 95.5C304.835 90.8752 308.583 87.1266 313.21 87.1266C317.831 87.1266 321.582 90.8752 321.582 95.5Z" stroke="#FF8B0D"/>
<path fill-rule="evenodd" clip-rule="evenodd" d="M17.7468 138.563C17.7468 143.188 13.9958 146.937 9.375 146.937C4.75104 146.937 1 143.188 1 138.563C1 133.939 4.75104 130.19 9.375 130.19C13.9958 130.19 17.7468 133.939 17.7468 138.563Z" stroke="#FF8B0D"/>
<path fill-rule="evenodd" clip-rule="evenodd" d="M63.2024 138.563C63.2024 143.188 59.4514 146.937 54.8306 146.937C50.2066 146.937 46.4556 143.188 46.4556 138.563C46.4556 133.939 50.2066 130.19 54.8306 130.19C59.4514 130.19 63.2024 133.939 63.2024 138.563Z" stroke="#FF8B0D"/>
<path fill-rule="evenodd" clip-rule="evenodd" d="M106.265 138.563C106.265 143.188 102.514 146.937 97.8936 146.937C93.2696 146.937 89.5186 143.188 89.5186 138.563C89.5186 133.939 93.2696 130.19 97.8936 130.19C102.514 130.19 106.265 133.939 106.265 138.563Z" stroke="#FF8B0D"/>
<path fill-rule="evenodd" clip-rule="evenodd" d="M149.329 138.563C149.329 143.188 145.581 146.937 140.958 146.937C136.334 146.937 132.583 143.188 132.583 138.563C132.583 133.939 136.334 130.19 140.958 130.19C145.581 130.19 149.329 133.939 149.329 138.563Z" stroke="#FF8B0D"/>
<path fill-rule="evenodd" clip-rule="evenodd" d="M192.393 138.563C192.393 143.188 188.644 146.937 184.019 146.937C179.395 146.937 175.646 143.188 175.646 138.563C175.646 133.939 179.395 130.19 184.019 130.19C188.644 130.19 192.393 133.939 192.393 138.563Z" stroke="#FF8B0D"/>
<path fill-rule="evenodd" clip-rule="evenodd" d="M235.456 138.563C235.456 143.188 231.707 146.937 227.082 146.937C222.458 146.937 218.709 143.188 218.709 138.563C218.709 133.939 222.458 130.19 227.082 130.19C231.707 130.19 235.456 133.939 235.456 138.563Z" stroke="#FF8B0D"/>
<path fill-rule="evenodd" clip-rule="evenodd" d="M278.519 138.563C278.519 143.188 274.771 146.937 270.149 146.937C265.521 146.937 261.772 143.188 261.772 138.563C261.772 133.939 265.521 130.19 270.149 130.19C274.771 130.19 278.519 133.939 278.519 138.563Z" stroke="#FF8B0D"/>
<path fill-rule="evenodd" clip-rule="evenodd" d="M321.582 138.563C321.582 143.188 317.831 146.937 313.21 146.937C308.583 146.937 304.835 143.188 304.835 138.563C304.835 133.939 308.583 130.19 313.21 130.19C317.831 130.19 321.582 133.939 321.582 138.563Z" stroke="#FF8B0D"/>
<path fill-rule="evenodd" clip-rule="evenodd" d="M17.7468 181.627C17.7468 186.251 13.9958 190 9.375 190C4.75104 190 1 186.251 1 181.627C1 177.002 4.75104 173.253 9.375 173.253C13.9958 173.253 17.7468 177.002 17.7468 181.627Z" stroke="#FF8B0D"/>
<path fill-rule="evenodd" clip-rule="evenodd" d="M63.2024 181.627C63.2024 186.251 59.4514 190 54.8306 190C50.2066 190 46.4556 186.251 46.4556 181.627C46.4556 177.002 50.2066 173.253 54.8306 173.253C59.4514 173.253 63.2024 177.002 63.2024 181.627Z" stroke="#FF8B0D"/>
<path fill-rule="evenodd" clip-rule="evenodd" d="M106.265 181.627C106.265 186.251 102.514 190 97.8936 190C93.2696 190 89.5186 186.251 89.5186 181.627C89.5186 177.002 93.2696 173.253 97.8936 173.253C102.514 173.253 106.265 177.002 106.265 181.627Z" stroke="#FF8B0D"/>
<path fill-rule="evenodd" clip-rule="evenodd" d="M149.329 181.627C149.329 186.251 145.581 190 140.958 190C136.334 190 132.583 186.251 132.583 181.627C132.583 177.002 136.334 173.253 140.958 173.253C145.581 173.253 149.329 177.002 149.329 181.627Z" stroke="#FF8B0D"/>
<path fill-rule="evenodd" clip-rule="evenodd" d="M192.393 181.627C192.393 186.251 188.644 190 184.019 190C179.395 190 175.646 186.251 175.646 181.627C175.646 177.002 179.395 173.253 184.019 173.253C188.644 173.253 192.393 177.002 192.393 181.627Z" stroke="#FF8B0D"/>
<path fill-rule="evenodd" clip-rule="evenodd" d="M235.456 181.627C235.456 186.251 231.707 190 227.082 190C222.458 190 218.709 186.251 218.709 181.627C218.709 177.002 222.458 173.253 227.082 173.253C231.707 173.253 235.456 177.002 235.456 181.627Z" stroke="#FF8B0D"/>
<path fill-rule="evenodd" clip-rule="evenodd" d="M278.519 181.627C278.519 186.251 274.771 190 270.149 190C265.521 190 261.772 186.251 261.772 181.627C261.772 177.002 265.521 173.253 270.149 173.253C274.771 173.253 278.519 177.002 278.519 181.627Z" stroke="#FF8B0D"/>
<path fill-rule="evenodd" clip-rule="evenodd" d="M321.582 181.627C321.582 186.251 317.831 190 313.21 190C308.583 190 304.835 186.251 304.835 181.627C304.835 177.002 308.583 173.253 313.21 173.253C317.831 173.253 321.582 177.002 321.582 181.627Z" stroke="#FF8B0D"/>
</svg>
