<svg width="249" height="191" viewBox="0 0 249 191" fill="none" xmlns="http://www.w3.org/2000/svg">
<path fill-rule="evenodd" clip-rule="evenodd" d="M17.7468 9.37365C17.7468 13.9985 13.9958 17.7471 9.375 17.7471C4.75104 17.7471 1 13.9985 1 9.37365C1 4.74882 4.75104 1.00024 9.375 1.00024C13.9958 1.00024 17.7468 4.74882 17.7468 9.37365Z" stroke="#1483DC"/>
<path fill-rule="evenodd" clip-rule="evenodd" d="M63.2024 9.37365C63.2024 13.9985 59.4514 17.7471 54.8306 17.7471C50.2066 17.7471 46.4556 13.9985 46.4556 9.37365C46.4556 4.74882 50.2066 1.00024 54.8306 1.00024C59.4514 1.00024 63.2024 4.74882 63.2024 9.37365Z" stroke="#1483DC"/>
<path fill-rule="evenodd" clip-rule="evenodd" d="M106.265 9.37365C106.265 13.9985 102.514 17.7471 97.8936 17.7471C93.2696 17.7471 89.5186 13.9985 89.5186 9.37365C89.5186 4.74882 93.2696 1.00024 97.8936 1.00024C102.514 1.00024 106.265 4.74882 106.265 9.37365Z" stroke="#1483DC"/>
<path fill-rule="evenodd" clip-rule="evenodd" d="M149.329 9.37365C149.329 13.9985 145.581 17.7471 140.958 17.7471C136.334 17.7471 132.583 13.9985 132.583 9.37365C132.583 4.74882 136.334 1.00024 140.958 1.00024C145.581 1.00024 149.329 4.74882 149.329 9.37365Z" stroke="#1483DC"/>
<path fill-rule="evenodd" clip-rule="evenodd" d="M192.393 9.37365C192.393 13.9985 188.644 17.7471 184.019 17.7471C179.395 17.7471 175.646 13.9985 175.646 9.37365C175.646 4.74882 179.395 1.00024 184.019 1.00024C188.644 1.00024 192.393 4.74882 192.393 9.37365Z" stroke="#1483DC"/>
<path fill-rule="evenodd" clip-rule="evenodd" d="M235.456 9.37365C235.456 13.9985 231.707 17.7471 227.082 17.7471C222.458 17.7471 218.709 13.9985 218.709 9.37365C218.709 4.74882 222.458 1.00024 227.082 1.00024C231.707 1.00024 235.456 4.74882 235.456 9.37365Z" stroke="#1483DC"/>
<path fill-rule="evenodd" clip-rule="evenodd" d="M17.7468 52.4366C17.7468 57.0615 13.9958 60.8101 9.375 60.8101C4.75104 60.8101 1 57.0615 1 52.4366C1 47.8118 4.75104 44.0632 9.375 44.0632C13.9958 44.0632 17.7468 47.8118 17.7468 52.4366Z" stroke="#1483DC"/>
<path fill-rule="evenodd" clip-rule="evenodd" d="M63.2024 52.4366C63.2024 57.0615 59.4514 60.8101 54.8306 60.8101C50.2066 60.8101 46.4556 57.0615 46.4556 52.4366C46.4556 47.8118 50.2066 44.0632 54.8306 44.0632C59.4514 44.0632 63.2024 47.8118 63.2024 52.4366Z" stroke="#1483DC"/>
<path fill-rule="evenodd" clip-rule="evenodd" d="M106.265 52.4366C106.265 57.0615 102.514 60.8101 97.8936 60.8101C93.2696 60.8101 89.5186 57.0615 89.5186 52.4366C89.5186 47.8118 93.2696 44.0632 97.8936 44.0632C102.514 44.0632 106.265 47.8118 106.265 52.4366Z" stroke="#1483DC"/>
<path fill-rule="evenodd" clip-rule="evenodd" d="M149.329 52.4366C149.329 57.0615 145.581 60.8101 140.958 60.8101C136.334 60.8101 132.583 57.0615 132.583 52.4366C132.583 47.8118 136.334 44.0632 140.958 44.0632C145.581 44.0632 149.329 47.8118 149.329 52.4366Z" stroke="#1483DC"/>
<path fill-rule="evenodd" clip-rule="evenodd" d="M192.393 52.4366C192.393 57.0615 188.644 60.8101 184.019 60.8101C179.395 60.8101 175.646 57.0615 175.646 52.4366C175.646 47.8118 179.395 44.0632 184.019 44.0632C188.644 44.0632 192.393 47.8118 192.393 52.4366Z" stroke="#1483DC"/>
<path fill-rule="evenodd" clip-rule="evenodd" d="M235.456 52.4366C235.456 57.0615 231.707 60.8101 227.082 60.8101C222.458 60.8101 218.709 57.0615 218.709 52.4366C218.709 47.8118 222.458 44.0632 227.082 44.0632C231.707 44.0632 235.456 47.8118 235.456 52.4366Z" stroke="#1483DC"/>
<path fill-rule="evenodd" clip-rule="evenodd" d="M17.7468 95.5001C17.7468 100.125 13.9958 103.874 9.375 103.874C4.75104 103.874 1 100.125 1 95.5001C1 90.8753 4.75104 87.1267 9.375 87.1267C13.9958 87.1267 17.7468 90.8753 17.7468 95.5001Z" stroke="#1483DC"/>
<path fill-rule="evenodd" clip-rule="evenodd" d="M63.2024 95.5001C63.2024 100.125 59.4514 103.874 54.8306 103.874C50.2066 103.874 46.4556 100.125 46.4556 95.5001C46.4556 90.8753 50.2066 87.1267 54.8306 87.1267C59.4514 87.1267 63.2024 90.8753 63.2024 95.5001Z" stroke="#1483DC"/>
<path fill-rule="evenodd" clip-rule="evenodd" d="M106.265 95.5001C106.265 100.125 102.514 103.874 97.8936 103.874C93.2696 103.874 89.5186 100.125 89.5186 95.5001C89.5186 90.8753 93.2696 87.1267 97.8936 87.1267C102.514 87.1267 106.265 90.8753 106.265 95.5001Z" stroke="#1483DC"/>
<path fill-rule="evenodd" clip-rule="evenodd" d="M149.329 95.5001C149.329 100.125 145.581 103.874 140.958 103.874C136.334 103.874 132.583 100.125 132.583 95.5001C132.583 90.8753 136.334 87.1267 140.958 87.1267C145.581 87.1267 149.329 90.8753 149.329 95.5001Z" stroke="#1483DC"/>
<path fill-rule="evenodd" clip-rule="evenodd" d="M192.393 95.5001C192.393 100.125 188.644 103.874 184.019 103.874C179.395 103.874 175.646 100.125 175.646 95.5001C175.646 90.8753 179.395 87.1267 184.019 87.1267C188.644 87.1267 192.393 90.8753 192.393 95.5001Z" stroke="#1483DC"/>
<path fill-rule="evenodd" clip-rule="evenodd" d="M235.456 95.5001C235.456 100.125 231.707 103.874 227.082 103.874C222.458 103.874 218.709 100.125 218.709 95.5001C218.709 90.8753 222.458 87.1267 227.082 87.1267C231.707 87.1267 235.456 90.8753 235.456 95.5001Z" stroke="#1483DC"/>
<path fill-rule="evenodd" clip-rule="evenodd" d="M17.7468 138.563C17.7468 143.188 13.9958 146.937 9.375 146.937C4.75104 146.937 1 143.188 1 138.563C1 133.938 4.75104 130.19 9.375 130.19C13.9958 130.19 17.7468 133.938 17.7468 138.563Z" stroke="#1483DC"/>
<path fill-rule="evenodd" clip-rule="evenodd" d="M63.2024 138.563C63.2024 143.188 59.4514 146.937 54.8306 146.937C50.2066 146.937 46.4556 143.188 46.4556 138.563C46.4556 133.938 50.2066 130.19 54.8306 130.19C59.4514 130.19 63.2024 133.938 63.2024 138.563Z" stroke="#1483DC"/>
<path fill-rule="evenodd" clip-rule="evenodd" d="M106.265 138.563C106.265 143.188 102.514 146.937 97.8936 146.937C93.2696 146.937 89.5186 143.188 89.5186 138.563C89.5186 133.938 93.2696 130.19 97.8936 130.19C102.514 130.19 106.265 133.938 106.265 138.563Z" stroke="#1483DC"/>
<path fill-rule="evenodd" clip-rule="evenodd" d="M149.329 138.563C149.329 143.188 145.581 146.937 140.958 146.937C136.334 146.937 132.583 143.188 132.583 138.563C132.583 133.938 136.334 130.19 140.958 130.19C145.581 130.19 149.329 133.938 149.329 138.563Z" stroke="#1483DC"/>
<path fill-rule="evenodd" clip-rule="evenodd" d="M192.393 138.563C192.393 143.188 188.644 146.937 184.019 146.937C179.395 146.937 175.646 143.188 175.646 138.563C175.646 133.938 179.395 130.19 184.019 130.19C188.644 130.19 192.393 133.938 192.393 138.563Z" stroke="#1483DC"/>
<path fill-rule="evenodd" clip-rule="evenodd" d="M235.456 138.563C235.456 143.188 231.707 146.937 227.082 146.937C222.458 146.937 218.709 143.188 218.709 138.563C218.709 133.938 222.458 130.19 227.082 130.19C231.707 130.19 235.456 133.938 235.456 138.563Z" stroke="#1483DC"/>
<path fill-rule="evenodd" clip-rule="evenodd" d="M17.7468 181.627C17.7468 186.251 13.9958 190 9.375 190C4.75104 190 1 186.251 1 181.627C1 177.002 4.75104 173.253 9.375 173.253C13.9958 173.253 17.7468 177.002 17.7468 181.627Z" stroke="#1483DC"/>
<path fill-rule="evenodd" clip-rule="evenodd" d="M63.2024 181.627C63.2024 186.251 59.4514 190 54.8306 190C50.2066 190 46.4556 186.251 46.4556 181.627C46.4556 177.002 50.2066 173.253 54.8306 173.253C59.4514 173.253 63.2024 177.002 63.2024 181.627Z" stroke="#1483DC"/>
<path fill-rule="evenodd" clip-rule="evenodd" d="M106.265 181.627C106.265 186.251 102.514 190 97.8936 190C93.2696 190 89.5186 186.251 89.5186 181.627C89.5186 177.002 93.2696 173.253 97.8936 173.253C102.514 173.253 106.265 177.002 106.265 181.627Z" stroke="#1483DC"/>
<path fill-rule="evenodd" clip-rule="evenodd" d="M149.329 181.627C149.329 186.251 145.581 190 140.958 190C136.334 190 132.583 186.251 132.583 181.627C132.583 177.002 136.334 173.253 140.958 173.253C145.581 173.253 149.329 177.002 149.329 181.627Z" stroke="#1483DC"/>
<path fill-rule="evenodd" clip-rule="evenodd" d="M192.393 181.627C192.393 186.251 188.644 190 184.019 190C179.395 190 175.646 186.251 175.646 181.627C175.646 177.002 179.395 173.253 184.019 173.253C188.644 173.253 192.393 177.002 192.393 181.627Z" stroke="#1483DC"/>
<path fill-rule="evenodd" clip-rule="evenodd" d="M235.456 181.627C235.456 186.251 231.707 190 227.082 190C222.458 190 218.709 186.251 218.709 181.627C218.709 177.002 222.458 173.253 227.082 173.253C231.707 173.253 235.456 177.002 235.456 181.627Z" stroke="#1483DC"/>
</svg>
