<svg width="74" height="74" viewBox="0 0 74 74" fill="none" xmlns="http://www.w3.org/2000/svg">
<path fill-rule="evenodd" clip-rule="evenodd" d="M59.6869 6.1344H49.3198C44.995 6.1344 41.5291 9.66166 41.5291 13.9895V24.4455C41.5291 28.8009 44.995 32.2975 49.3198 32.2975H59.6869C63.9809 32.2975 67.4775 28.8009 67.4775 24.4455V13.9895C67.4775 9.66166 63.9809 6.1344 59.6869 6.1344ZM13.9236 6.13449H24.2907C28.6154 6.13449 32.0813 9.66175 32.0813 13.9896V24.4456C32.0813 28.801 28.6154 32.2976 24.2907 32.2976H13.9236C9.62954 32.2976 6.13295 28.801 6.13295 24.4456V13.9896C6.13295 9.66175 9.62954 6.13449 13.9236 6.13449ZM13.9235 41.3152H24.2905C28.6153 41.3152 32.0812 44.8148 32.0812 49.1702V59.6262C32.0812 63.951 28.6153 67.4782 24.2905 67.4782H13.9235C9.6294 67.4782 6.13281 63.951 6.13281 59.6262V49.1702C6.13281 44.8148 9.6294 41.3152 13.9235 41.3152ZM49.3198 41.3152H59.6869C63.9809 41.3152 67.4775 44.8148 67.4775 49.1702V59.6262C67.4775 63.951 63.9809 67.4782 59.6869 67.4782H49.3198C44.995 67.4782 41.5291 63.951 41.5291 59.6262V49.1702C41.5291 44.8148 44.995 41.3152 49.3198 41.3152Z" fill="white"/>
</svg>
