<svg width="24" height="23" viewBox="0 0 24 23" fill="none" xmlns="http://www.w3.org/2000/svg">
<g clip-path="url(#clip0_5131_1412)">
<path d="M8.76954 12.597C8.86979 14.095 7.74928 15.0385 6.56979 15.0857C5.27825 15.0326 4.30518 14.1185 4.30518 12.7621C4.30518 11.4647 5.21338 10.4562 6.52851 10.4444C7.80236 10.4326 8.68697 11.4116 8.76364 12.6029L8.76954 12.597Z" fill="#01182D"/>
<path d="M11.7713 0C5.43741 0 0.306641 5.13667 0.306641 11.4646C0.306641 17.7926 5.44331 22.9292 11.7713 22.9292C18.0992 22.9292 23.2359 17.7926 23.2359 11.4646C23.2359 5.13667 18.1051 0 11.7713 0ZM11.1225 16.6544C10.8925 17.3679 10.0197 17.7926 9.40049 17.4033C9.15869 17.2559 8.95818 17.0436 8.71049 16.8313C7.7669 17.3562 6.71715 17.5272 5.59664 17.2795C4.45844 17.0259 3.55613 16.3949 2.9251 15.4572C1.74562 13.7233 1.71023 11.6828 3.09613 9.83103C3.621 9.12333 4.34638 8.62205 5.21331 8.34487C6.45177 7.95564 7.61946 8.09718 8.77536 8.7518C8.77536 7.73744 8.77536 6.78205 8.77536 5.83256C8.77536 5.17205 9.30613 4.64718 9.94305 4.65308C10.5446 4.65308 11.0164 5.17795 11.0164 5.84436C11.0164 8.13256 11.0105 10.4208 11.0164 12.709C11.0164 13.4697 10.8572 14.1833 10.5328 14.8615C10.4738 14.9854 10.4797 15.0679 10.5977 15.1328C11.04 15.3746 11.3231 16.041 11.1225 16.6603V16.6544ZM18.512 17.2795C17.3915 17.5272 16.3418 17.3562 15.3982 16.8313C15.1446 17.0436 14.9441 17.2559 14.7082 17.4033C14.0889 17.7926 13.2161 17.3621 12.9802 16.6544C12.7797 16.0351 13.0628 15.3687 13.5051 15.1269C13.6231 15.0621 13.6289 14.9795 13.57 14.8556C13.2397 14.1774 13.0805 13.4638 13.0864 12.7031C13.0982 10.4149 13.0864 8.12667 13.0864 5.83846C13.0864 5.17795 13.5582 4.65308 14.1597 4.64718C14.8025 4.64718 15.3274 5.16615 15.3274 5.82667C15.3274 6.77615 15.3274 7.73154 15.3274 8.7459C16.4833 8.09128 17.6569 7.94974 18.8895 8.33897C19.7564 8.61026 20.4818 9.11744 21.0066 9.82513C22.3925 11.6769 22.3572 13.7233 21.1777 15.4513C20.5407 16.389 19.6443 17.0259 18.5061 17.2736L18.512 17.2795ZM17.5743 10.4444C16.3005 10.4326 15.4159 11.4115 15.3333 12.6028C15.2331 14.1008 16.3536 15.0444 17.5331 15.0915C18.8305 15.0385 19.7977 14.1244 19.7977 12.7679C19.7977 11.4705 18.8895 10.4621 17.5743 10.4503V10.4444Z" fill="#01182D"/>
</g>
<defs>
<clipPath id="clip0_5131_1412">
<rect width="23.5897" height="23" fill="white"/>
</clipPath>
</defs>
</svg>
