<svg width="219" height="60" viewBox="0 0 219 60" fill="none" xmlns="http://www.w3.org/2000/svg">
<g clip-path="url(#clip0_5079_8715)">
<path d="M3.18537 52.8112C3.56333 53.0305 3.86329 53.3831 4.08826 53.8661C4.31323 54.3492 4.42722 54.9714 4.42722 55.73V57.4695H0.386719V56.6575H3.52133V55.7774C3.52133 54.8736 3.34435 54.2336 2.9904 53.8632C2.63644 53.4898 2.21949 53.3031 1.74255 53.3031H0.902655L0.833664 52.6245C0.929652 52.5919 1.08863 52.5623 1.30761 52.5297C1.52658 52.4971 1.73355 52.4823 1.92553 52.4823C2.39047 52.4823 2.81042 52.5919 3.18837 52.8112H3.18537Z" fill="#052F61"/>
<path d="M8.37792 52.5711C8.76187 52.6126 9.07683 52.66 9.3198 52.7104V56.7997C9.3198 57.7628 9.19382 58.5095 8.93885 59.0399C8.68388 59.5704 8.20994 59.837 7.51102 59.837C7.24106 59.837 6.73112 59.7867 5.98421 59.683V58.871C6.61713 58.9718 7.10307 59.0251 7.44503 59.0251C7.66401 59.0251 7.84098 58.9866 7.97597 58.9095C8.11095 58.8325 8.21294 58.6814 8.28493 58.4562C8.35692 58.231 8.39292 57.8991 8.39292 57.4664H7.06708C6.32017 57.4664 5.82823 57.2412 5.59126 56.7879C5.35429 56.3345 5.2373 55.7744 5.2373 55.1077C5.2433 54.4765 5.3123 53.9728 5.44428 53.5994C5.57626 53.2231 5.79524 52.9475 6.1012 52.7726C6.40716 52.5978 6.82411 52.5089 7.35204 52.5089C7.64901 52.5089 7.98797 52.5297 8.37192 52.5711H8.37792ZM6.39216 56.213C6.54814 56.5093 6.8721 56.6575 7.37004 56.6575H8.40491V53.389C8.08995 53.3445 7.80799 53.3208 7.56502 53.3208C7.04308 53.3208 6.68013 53.4572 6.47615 53.7268C6.27218 53.9965 6.16719 54.4469 6.16119 55.0781C6.16119 55.5374 6.23918 55.9137 6.39216 56.21V56.213Z" fill="#052F61"/>
<path d="M15.2501 56.6575V57.4695H10.2617V56.6575H13.3963V55.7774C13.3963 54.8736 13.2194 54.2336 12.8654 53.8632C12.5114 53.4898 12.0945 53.3031 11.6176 53.3031H10.7777L10.7087 52.6245C10.8047 52.5919 10.9636 52.5623 11.1826 52.5297C11.4016 52.4971 11.6086 52.4823 11.8005 52.4823C12.2655 52.4823 12.6854 52.5919 13.0634 52.8112C13.4413 53.0305 13.7413 53.3831 13.9663 53.8661C14.1912 54.3492 14.3052 54.9714 14.3052 55.73V56.6575H15.2531H15.2501Z" fill="#052F61"/>
<path d="M15.25 56.6575H17.6677V57.4694H15.25V56.6575Z" fill="#052F61"/>
<path d="M17.6675 56.6575H20.0852V57.4694H17.6675V56.6575Z" fill="#052F61"/>
<path d="M20.0854 56.6575H22.5032V57.4694H20.0854V56.6575Z" fill="#052F61"/>
<path d="M22.5029 56.6575H24.9206V57.4694H22.5029V56.6575Z" fill="#052F61"/>
<path d="M24.9209 56.6575H27.3386V57.4694H24.9209V56.6575Z" fill="#052F61"/>
<path d="M27.3384 56.6575H29.7561V57.4694H27.3384V56.6575Z" fill="#052F61"/>
<path d="M34.0393 52.9653C34.3303 53.2113 34.4743 53.6261 34.4743 54.2128V57.4695H29.7559V56.6575H33.5654V54.3077C33.5654 53.6972 33.2504 53.392 32.6175 53.392C32.3325 53.392 31.6666 53.4424 30.6168 53.5461L30.5868 52.906C30.9347 52.8231 31.3277 52.752 31.7626 52.6927C32.1976 52.6334 32.5575 52.6008 32.8395 52.6008C33.3494 52.6008 33.7484 52.7223 34.0393 52.9683V52.9653Z" fill="#052F61"/>
<path d="M43.1372 56.6576V57.4695H37.5669V56.6576H38.7937V51.9578H39.7116V56.6576H41.3944V50.6688H42.3033V56.6576H43.1342H43.1372Z" fill="#052F61"/>
<path d="M45.4979 52.6926V57.4694H43.1372V56.6575H44.577V52.6926H45.4949H45.4979ZM44.607 58.2339H45.4859V59.1703H44.607V58.2339Z" fill="#052F61"/>
<path d="M54.4131 56.6575V57.4695H51.1345C50.5406 57.4695 50.0726 57.3924 49.7337 57.2413C49.3917 57.0872 49.1427 56.8353 48.9898 56.4857C48.8368 56.136 48.7588 55.65 48.7588 55.0337C48.7588 54.4173 48.8338 53.9491 48.9808 53.5965C49.1277 53.2439 49.3707 52.989 49.7067 52.832C50.0426 52.6749 50.5016 52.5979 51.0895 52.5979C51.3745 52.5979 51.7644 52.6097 52.2594 52.6364C52.7543 52.6631 53.1173 52.6868 53.3422 52.7134V56.6575H54.4161H54.4131ZM49.8267 55.9967C49.9256 56.2338 50.0906 56.4027 50.3156 56.5034C50.5406 56.6042 50.8495 56.6575 51.2425 56.6575H52.4303V53.475C51.9144 53.4365 51.5064 53.4187 51.2035 53.4187C50.8225 53.4187 50.5226 53.472 50.3006 53.5757C50.0786 53.6795 49.9196 53.8484 49.8207 54.0825C49.7247 54.3166 49.6767 54.6277 49.6767 55.0248C49.6767 55.4396 49.7277 55.7626 49.8267 55.9997V55.9967ZM50.2556 50.8762H51.0775V51.8037H50.2556V50.8762ZM51.5514 50.8762H52.3643V51.8037H51.5514V50.8762Z" fill="#052F61"/>
<path d="M58.2136 56.6575V57.4694H54.4131V56.6575H55.8529V52.6926H56.7708V56.6575H58.2106H58.2136ZM55.244 58.2339H56.0659V59.1496H55.244V58.2339ZM56.5428 58.2339H57.3557V59.1496H56.5428V58.2339Z" fill="#052F61"/>
<path d="M62.0139 56.6575V57.4695H58.2134V56.6575H59.6532V52.6927H60.5711V56.6575H62.0109H62.0139ZM59.0563 50.8762H59.8782V51.8037H59.0563V50.8762ZM60.3521 50.8762H61.165V51.8037H60.3521V50.8762Z" fill="#052F61"/>
<path d="M62.0142 56.6575H64.4319V57.4694H62.0142V56.6575Z" fill="#052F61"/>
<path d="M64.4316 56.6575H66.8493V57.4694H64.4316V56.6575Z" fill="#052F61"/>
<path d="M66.8496 56.6575H69.2673V57.4694H66.8496V56.6575Z" fill="#052F61"/>
<path d="M69.2671 56.6575H71.6848V57.4694H69.2671V56.6575Z" fill="#052F61"/>
<path d="M79.9911 56.6575V57.4694H77.2434C76.8445 57.4694 76.4845 57.342 76.1696 57.0872C75.9296 57.342 75.6176 57.4694 75.2307 57.4694H71.6821V56.6575H73.2209V53.1697H74.1388V56.6575H74.9307C75.2157 56.6575 75.4227 56.539 75.5547 56.3049C75.6866 56.0708 75.7526 55.7744 75.7526 55.4159V53.1697H76.6705V55.404C76.6705 55.7685 76.6285 56.0915 76.5445 56.3789C76.6345 56.4501 76.7455 56.5123 76.8745 56.5686C77.0035 56.6249 77.1325 56.6545 77.2614 56.6545H78.1883V54.8114C78.1883 54.3669 78.1373 53.6676 78.0323 52.7193L78.8063 52.6897C78.8842 53.066 78.9532 53.4601 79.0132 53.8691C79.0732 54.281 79.1062 54.5951 79.1062 54.8114V56.6545H79.9851L79.9911 56.6575Z" fill="#052F61"/>
<path d="M84.2742 52.9653C84.5652 53.2113 84.7091 53.6261 84.7091 54.2128V57.4695H79.9907V56.6575H83.8002V54.3077C83.8002 53.6972 83.4853 53.392 82.8524 53.392C82.5674 53.392 81.9015 53.4424 80.8516 53.5461L80.8216 52.906C81.1696 52.8231 81.5625 52.752 81.9975 52.6927C82.4324 52.6334 82.7924 52.6008 83.0743 52.6008C83.5843 52.6008 83.9832 52.7223 84.2742 52.9683V52.9653ZM82.3214 58.234H83.2003V59.1704H82.3214V58.234Z" fill="#052F61"/>
<path d="M90.9486 57.4695H89.7398C89.6948 58.2222 89.5388 58.803 89.2718 59.2178C89.0049 59.6327 88.5639 59.8401 87.952 59.8401C87.682 59.8401 87.1721 59.7897 86.4252 59.686V58.8741C87.0581 58.9748 87.5441 59.0282 87.886 59.0282C88.105 59.0282 88.282 58.9896 88.417 58.9126C88.5519 58.8355 88.6539 58.6844 88.7259 58.4592C88.7979 58.234 88.8309 57.9021 88.8309 57.4695H87.5051C86.7582 57.4695 86.2662 57.2443 86.0292 56.7909C85.7953 56.3375 85.6753 55.7775 85.6753 55.1107C85.6813 54.4796 85.7503 53.9758 85.8823 53.6024C86.0143 53.2261 86.2332 52.9505 86.5392 52.7757C86.8452 52.6009 87.2621 52.512 87.79 52.512C88.087 52.512 88.426 52.5327 88.8099 52.5742C89.1939 52.6157 89.5088 52.6631 89.7518 52.7135V56.6576H90.9426V57.4695H90.9486ZM86.8271 56.2131C86.9831 56.5094 87.3071 56.6576 87.805 56.6576H88.8399V53.3891C88.5249 53.3446 88.243 53.3209 88 53.3209C87.4781 53.3209 87.1151 53.4572 86.9111 53.7269C86.7072 53.9966 86.6022 54.447 86.5962 55.0781C86.5962 55.5374 86.6742 55.9138 86.8271 56.2101V56.2131Z" fill="#052F61"/>
<path d="M93.0575 50.6658V57.4664H90.9487V56.6545H92.1366V50.6658H93.0545H93.0575Z" fill="#052F61"/>
<path d="M97.6979 59.5645C97.299 59.3837 96.984 59.1318 96.756 58.8148C96.528 58.4947 96.4141 58.1391 96.4141 57.745C96.4141 57.3065 96.54 56.3404 96.792 54.8499L97.6619 54.8973C97.5659 55.5018 97.4819 56.0708 97.4159 56.6012C97.3469 57.1316 97.314 57.4872 97.314 57.665C97.314 57.9199 97.3889 58.151 97.5359 58.3584C97.6829 58.5658 97.8899 58.7288 98.1508 58.8444C98.4118 58.96 98.6998 59.0222 99.0177 59.0222C99.4827 59.0222 99.8696 58.9007 100.182 58.6547C100.494 58.4088 100.65 58.0799 100.65 57.665V50.6628H101.567V57.7687C101.567 58.1895 101.456 58.554 101.234 58.8681C101.012 59.1792 100.71 59.4193 100.326 59.5852C99.9416 59.7511 99.5157 59.8341 99.0447 59.8341C98.5468 59.8341 98.0998 59.7423 97.7009 59.5615L97.6979 59.5645Z" fill="#052F61"/>
<path d="M108.064 57.4695H106.856C106.811 58.2222 106.655 58.803 106.388 59.2178C106.121 59.6327 105.68 59.8401 105.068 59.8401C104.798 59.8401 104.288 59.7897 103.541 59.686V58.8741C104.174 58.9748 104.66 59.0282 105.002 59.0282C105.221 59.0282 105.398 58.9896 105.533 58.9126C105.668 58.8355 105.77 58.6844 105.842 58.4592C105.914 58.234 105.947 57.9021 105.947 57.4695H104.621C103.874 57.4695 103.382 57.2443 103.145 56.7909C102.911 56.3375 102.791 55.7775 102.791 55.1107C102.797 54.4796 102.866 53.9758 102.998 53.6024C103.13 53.2261 103.349 52.9505 103.655 52.7757C103.961 52.6009 104.378 52.512 104.906 52.512C105.203 52.512 105.542 52.5327 105.926 52.5742C106.31 52.6157 106.625 52.6631 106.868 52.7135V56.6576H108.058V57.4695H108.064ZM103.946 56.2131C104.102 56.5094 104.426 56.6576 104.924 56.6576H105.959V53.3891C105.644 53.3446 105.362 53.3209 105.119 53.3209C104.597 53.3209 104.234 53.4572 104.03 53.7269C103.826 53.9966 103.721 54.447 103.715 55.0781C103.715 55.5374 103.793 55.9138 103.946 56.2101V56.2131Z" fill="#052F61"/>
<path d="M111.334 56.6576V57.4695H108.064V56.6576H109.252V50.6688H110.17V56.6576H111.331H111.334Z" fill="#052F61"/>
<path d="M111.334 56.6575H113.752V57.4694H111.334V56.6575Z" fill="#052F61"/>
<path d="M113.752 56.6575H116.17V57.4694H113.752V56.6575Z" fill="#052F61"/>
<path d="M116.169 56.6575H118.587V57.4694H116.169V56.6575Z" fill="#052F61"/>
<path d="M118.584 56.6575H121.002V57.4694H118.584V56.6575Z" fill="#052F61"/>
<path d="M125.285 52.9653C125.576 53.2113 125.72 53.6261 125.72 54.2128V57.4695H121.002V56.6575H124.811V54.3077C124.811 53.6972 124.497 53.392 123.864 53.392C123.579 53.392 122.913 53.4424 121.863 53.5461L121.833 52.906C122.181 52.8231 122.574 52.752 123.009 52.6927C123.444 52.6334 123.804 52.6008 124.086 52.6008C124.596 52.6008 124.994 52.7223 125.285 52.9683V52.9653Z" fill="#052F61"/>
<path fill-rule="evenodd" clip-rule="evenodd" d="M203.024 31.2772L130.331 38.1994L196.407 27.5909L203.024 31.2772Z" fill="#1483DC"/>
<path d="M155.609 39.1713L155.675 39.2335H155.018L155.609 39.1713Z" fill="#0097DC"/>
<path d="M206.819 41.9509C205.313 45.6371 203.153 49.0034 200.333 51.7207C195.159 56.8323 187.957 60 180.098 60C172.239 60 165.037 56.8294 159.862 51.7207C157.046 48.9382 154.82 45.6371 153.377 41.8886L133.601 41.8234L218.997 32.507L212.251 40.6589C211.531 41.5004 211.597 41.9538 209.827 41.9538H206.816L206.819 41.9509ZM156.659 41.8886C157.967 44.7985 159.736 47.3855 162.028 49.6524C166.611 54.1802 173.028 57.0279 180.101 57.0279C187.174 57.0279 193.527 54.1832 198.177 49.6524C200.402 47.4536 202.235 44.8015 203.546 41.9538L168.642 41.8886H156.659Z" fill="#052F61"/>
<path d="M180.101 3.45816C187.96 3.45816 195.162 6.62885 200.336 11.7405C205.316 16.7217 208.522 23.5164 208.72 31.0194L205.643 31.3424C205.577 24.5477 202.694 18.3396 198.177 13.877C193.527 9.28392 187.174 6.50143 180.101 6.50143C173.028 6.50143 166.611 9.28392 162.028 13.877C158.228 17.6285 155.609 22.4823 154.826 27.9139L181.088 23.7091L185.803 26.296L133.937 31.212L151.682 28.4295C152.468 21.9607 155.414 16.1379 159.868 11.7375C165.043 6.62588 172.179 3.4552 180.104 3.4552L180.101 3.45816Z" fill="#052F61"/>
<path d="M16.432 43.7584C10.5887 43.7584 6.32922 42.585 3.64755 40.241C1.21485 38.1223 0 34.9368 0 30.6756C0 28.1421 0.386952 25.8248 1.15786 23.7238L7.47208 22.7104C6.4522 24.9121 5.94227 27.3449 5.94227 30.0059C5.94227 33.2151 6.75217 35.5176 8.36897 36.9133C10.0728 38.4097 12.9644 39.1594 17.0439 39.1594H26.3967V12.585H32.318V39.1594H36.7755V43.7584H16.432ZM11.2756 22.2363C12.3975 22.2363 13.2344 22.2926 13.7893 22.4082C13.2224 22.1207 12.9374 21.5458 12.9374 20.6806C12.9374 19.2997 13.4323 18.1618 14.4222 17.2699C15.5741 16.2475 17.2419 15.7379 19.4256 15.7379C20.1395 15.7379 21.0214 15.809 22.0683 15.9542L21.5223 19.2582C20.7784 19.116 20.0375 19.0419 19.2936 19.0419C17.8508 19.0419 17.1309 19.5456 17.1309 20.5532C17.1309 21.6762 18.1658 22.2363 20.2325 22.2363H22.7672V25.5403H11.2726V22.2363H11.2756Z" fill="#052F61"/>
<path d="M36.1217 39.1594H41.671V12.585H47.5712V39.1594H52.0497V43.7584H36.1187V39.1594H36.1217Z" fill="#052F61"/>
<path d="M51.3745 39.1594H64.5519V43.7584H51.3745V39.1594Z" fill="#052F61"/>
<path d="M64.0483 39.1594H77.2257V43.7584H64.0483V39.1594Z" fill="#052F61"/>
<path d="M76.7246 39.1594H89.902V43.7584H76.7246V39.1594Z" fill="#052F61"/>
<path d="M89.3979 39.1594H102.575V43.7584H89.3979V39.1594Z" fill="#052F61"/>
<path d="M101.591 6.19626L105.044 5.48507C104.855 5.06726 104.759 4.57832 104.759 4.01826C104.759 2.8537 105.197 1.88768 106.07 1.12613C106.901 0.379385 107.942 0.00305176 109.195 0.00305176C110.359 0.00305176 111.286 0.31123 111.97 0.930551C112.597 1.52024 112.909 2.28476 112.909 3.21818C112.909 5.26283 111.496 6.57852 108.67 7.1682L102.137 8.52834L101.591 6.19626ZM108.43 4.77093C109.624 4.52498 110.221 4.08642 110.221 3.45524C110.221 2.72036 109.819 2.35291 109.018 2.35291C107.942 2.35291 107.402 2.89223 107.402 3.97085C107.402 4.35904 107.474 4.67018 107.621 4.89835L108.43 4.76797V4.77093Z" fill="#052F61"/>
<path d="M102.071 43.7584V39.1594H104.627C105.662 39.1594 106.493 39.2602 107.117 39.4617C105.455 38.2675 104.627 36.1577 104.627 33.1381C104.627 30.1186 105.59 27.6561 107.513 25.6677C109.639 23.4957 112.552 22.4082 116.254 22.4082C123 22.4082 126.371 25.7981 126.371 32.5751V43.7584H102.071ZM120.603 33.2863C120.603 29.0992 119.007 27.0042 115.819 27.0042C114.172 27.0042 112.861 27.5642 111.886 28.6873C110.953 29.7807 110.488 31.2061 110.488 32.9603C110.488 37.0911 112.726 39.1565 117.198 39.1565H120.606V33.2833L120.603 33.2863ZM113.5 18.2211C112.888 17.6166 112.582 16.8906 112.582 16.0401C112.582 15.1897 112.888 14.4844 113.5 13.8799C114.112 13.2754 114.826 12.9939 115.687 12.9939C116.548 12.9939 117.252 13.2902 117.849 13.8799C118.461 14.4844 118.767 15.2045 118.767 16.0401C118.767 16.8758 118.461 17.5958 117.849 18.2003C117.252 18.79 116.53 19.0864 115.687 19.0864C114.844 19.0864 114.1 18.7989 113.5 18.224V18.2211Z" fill="#052F61"/>
</g>
<defs>
<clipPath id="clip0_5079_8715">
<rect width="219" height="60" fill="white"/>
</clipPath>
</defs>
</svg>
