<svg width="89" height="58" viewBox="0 0 89 58" fill="none" xmlns="http://www.w3.org/2000/svg">
<path d="M72.268 0.0072218H71.7452C70.3448 0.0541624 68.795 0.319558 67.1144 0.783548C63.7534 1.71514 59.9442 3.41222 56.0417 5.43789C48.218 9.482 40.0208 14.826 33.3547 17.823C28.4252 20.0617 22.282 21.506 16.5869 22.7879C10.8918 24.0697 5.57951 25.2071 2.70209 26.507C1.37075 27.1208 0.666802 27.7527 0.328832 28.2943C-0.00727178 28.8179 -0.0632891 29.2332 0.0599488 29.8109C0.306425 30.9664 1.66017 32.5912 3.51248 33.7647L4.1268 34.1439C34.4937 33.7286 58.1704 31.6705 76.5253 24.6474C76.9175 21.4699 77.7764 18.3827 79.6063 15.8912V15.8731L79.625 15.8551C84.1997 10.0417 81.2868 2.75144 75.4423 0.528984C74.5087 0.17693 73.4444 0.00361082 72.268 0V0.0072218ZM76.3573 33.4289C68.1041 37.9605 56.9753 40.1089 44.7636 40.8672C31.9356 41.6616 17.9313 40.8853 4.89424 39.459L5.24714 41.9866C11.0711 42.5643 23.6451 44.1169 37.5187 44.0628C51.9338 44.0086 67.3198 42.0227 76.4693 35.7218C76.432 34.9816 76.3946 34.2233 76.3573 33.4289ZM77.683 38.8813C68.9257 44.5683 56.4338 46.6265 44.0914 47.15C52.4379 54.1911 60.7658 57.0978 67.8613 57.82C76.3013 58.6866 83.0794 56.2493 85.5628 54.2453C87.9902 52.2954 88.8305 50.7247 88.9798 49.5151C89.1105 48.2874 88.6064 47.1139 87.4487 45.814C85.3387 43.3948 81.1934 41.0478 77.683 38.8813Z" fill="white"/>
</svg>
