<svg width="75" height="89" viewBox="0 0 75 89" fill="none" xmlns="http://www.w3.org/2000/svg">
<path d="M37.5217 0L0.043457 16.0525V40.1312C0.043457 62.4041 16.0342 83.2322 37.5217 88.2887C59.0093 83.2322 75 62.4041 75 40.1312V16.0525L37.5217 0ZM37.5217 15.6512C39.9926 15.6512 42.4079 16.3573 44.4623 17.6802C46.5168 19.0031 48.118 20.8834 49.0635 23.0833C50.0091 25.2832 50.2565 27.7039 49.7744 30.0393C49.2924 32.3747 48.1026 34.5199 46.3554 36.2037C44.6083 37.8874 42.3823 39.0341 39.9589 39.4986C37.5356 39.9631 35.0237 39.7247 32.741 38.8135C30.4582 37.9023 28.5071 36.3591 27.1344 34.3793C25.7617 32.3994 25.029 30.0717 25.029 27.6906C25.029 24.4975 26.3452 21.4353 28.688 19.1774C31.0309 16.9196 34.2084 15.6512 37.5217 15.6512ZM37.5217 47.3549C45.8502 47.3549 62.5072 51.7292 62.5072 59.7153C59.7723 63.6888 56.0595 66.9482 51.6999 69.203C47.3403 71.4577 42.4695 72.6377 37.5217 72.6377C32.574 72.6377 27.7032 71.4577 23.3436 69.203C18.984 66.9482 15.2712 63.6888 12.5362 59.7153C12.5362 51.7292 29.1932 47.3549 37.5217 47.3549Z" fill="#EEEEEE"/>
</svg>
